<?xml version="1.0" standalone="no"?>
<!DOCTYPE svg PUBLIC "-//W3C//DTD SVG 20010904//EN"
 "http://www.w3.org/TR/2001/REC-SVG-20010904/DTD/svg10.dtd">
<svg version="1.0" xmlns="http://www.w3.org/2000/svg"
 width="1024.000000pt" height="1024.000000pt" viewBox="0 0 1024.000000 1024.000000"
 preserveAspectRatio="xMidYMid meet">
<metadata>
Created by potrace 1.14, written by Peter Selinger 2001-2017
</metadata>
<g transform="translate(0.000000,1024.000000) scale(0.100000,-0.100000)"
fill="#000000" stroke="none">
<path d="M4030 10085 c0 -26 -25 -36 -33 -12 -2 6 -7 -10 -11 -38 -8 -55 -45
-189 -82 -303 -13 -40 -24 -78 -24 -85 0 -6 -25 -62 -55 -124 -41 -81 -60
-111 -70 -106 -8 3 -15 9 -15 14 0 5 -5 8 -12 7 -6 -2 -18 9 -25 24 -14 27
-69 64 -213 141 -41 22 -89 54 -107 71 -17 17 -49 40 -70 51 -21 10 -49 27
-63 36 -56 37 -184 99 -206 99 -46 0 -57 -25 -50 -118 3 -47 10 -101 16 -121
5 -20 23 -92 40 -161 18 -69 41 -150 52 -180 69 -188 120 -319 144 -368 15
-30 27 -71 28 -91 1 -35 0 -36 -37 -39 -33 -3 -36 -5 -27 -22 7 -12 6 -20 -1
-22 -6 -2 -5 -14 5 -32 13 -26 13 -31 -1 -52 -8 -13 -12 -24 -8 -24 5 0 0 -9
-9 -19 -10 -10 -24 -46 -31 -79 -8 -34 -33 -104 -54 -157 -48 -114 -81 -221
-81 -261 0 -16 -7 -62 -15 -102 -9 -40 -12 -84 -9 -97 3 -14 3 -47 -1 -73 -7
-41 -9 -44 -16 -22 -7 24 -7 24 -7 -5 0 -32 15 -90 17 -66 2 24 18 0 26 -38 5
-23 4 -31 -4 -27 -6 4 -11 14 -11 23 0 9 -3 14 -6 10 -10 -10 7 -47 22 -47 10
0 14 -12 14 -40 0 -21 9 -61 19 -89 20 -48 20 -50 1 -112 -15 -50 -29 -72 -69
-110 -40 -38 -51 -56 -61 -102 -15 -66 -6 -136 20 -167 25 -29 36 -103 21
-149 -7 -23 -7 -37 -1 -39 5 -2 -1 -18 -13 -35 -44 -59 -80 -284 -48 -295 6
-2 11 -11 11 -20 0 -9 11 -36 24 -58 21 -36 24 -60 30 -181 4 -80 2 -161 -3
-189 -6 -27 -15 -143 -21 -259 -6 -115 -15 -228 -20 -250 -5 -23 -5 -44 0 -49
11 -11 28 50 37 126 11 101 23 51 18 -75 -5 -133 8 -209 44 -258 11 -14 23
-44 26 -65 4 -22 17 -61 30 -89 12 -27 33 -74 46 -103 15 -32 29 -50 36 -47
10 3 13 -24 14 -118 1 -67 1 -126 0 -131 -1 -4 5 -45 13 -90 21 -115 49 -365
42 -372 0 -1 -23 -4 -51 -7 -79 -9 -167 -28 -195 -41 -14 -7 -56 -21 -95 -31
-38 -10 -74 -22 -79 -26 -6 -5 -51 -9 -100 -10 -91 0 -292 -21 -332 -34 -12
-4 -25 -2 -28 4 -11 17 -23 13 -29 -7 -2 -12 -17 -22 -36 -25 -18 -4 -65 -22
-104 -41 -120 -56 -260 -115 -292 -122 -27 -6 -95 -42 -198 -104 -21 -12 -50
-23 -66 -25 -16 -1 -42 -12 -59 -24 -17 -12 -57 -33 -89 -47 -32 -14 -75 -41
-96 -60 -21 -19 -51 -37 -67 -41 -16 -3 -35 -12 -41 -19 -6 -8 -16 -14 -21
-14 -11 0 -98 -89 -98 -100 0 -4 -12 -13 -27 -21 -16 -7 -37 -23 -49 -34 -11
-11 -35 -32 -52 -47 -28 -23 -33 -24 -41 -10 -7 12 -25 17 -68 18 -43 1 -74 9
-118 32 -47 24 -62 28 -70 18 -5 -7 -16 -11 -22 -9 -7 3 -14 -4 -14 -14 -1
-10 -3 -29 -4 -43 -1 -14 -6 -74 -10 -135 -4 -60 -13 -134 -20 -162 -7 -29
-11 -53 -8 -53 4 0 -14 -13 -38 -30 -24 -16 -51 -27 -60 -25 -11 4 -27 -8 -45
-32 -16 -21 -29 -40 -29 -43 -2 -23 -77 -108 -204 -232 -108 -106 -149 -152
-144 -163 4 -12 1 -16 -13 -13 -12 2 -20 -4 -22 -16 -2 -11 -22 -35 -43 -54
-29 -27 -38 -41 -33 -55 5 -15 2 -19 -8 -15 -9 4 -14 -1 -15 -13 -2 -28 12
-23 56 16 21 19 43 35 49 35 5 0 26 21 47 48 21 26 63 72 94 103 31 31 77 81
102 112 26 31 49 53 52 50 3 -3 9 6 12 20 9 35 35 57 36 31 0 -12 8 -3 19 21
11 24 38 54 64 73 25 18 48 41 51 52 3 11 18 25 33 32 23 11 26 19 24 48 l-4
35 25 -24 c26 -23 47 -22 47 5 0 8 7 14 15 14 20 0 106 81 98 93 -3 5 -7 48
-9 96 -4 95 -6 110 -17 129 -14 21 0 13 32 -18 16 -17 28 -36 25 -43 -2 -7 6
-19 19 -26 12 -7 24 -22 24 -33 3 -39 18 -37 68 7 27 25 55 45 62 45 7 0 13 5
13 10 0 6 9 10 20 10 11 0 20 3 20 8 0 21 101 105 127 105 7 0 13 4 13 9 0 20
167 144 178 133 3 -2 19 6 36 18 17 12 33 22 36 22 3 1 30 17 61 37 59 39 96
44 91 13 -3 -17 -2 -17 20 -3 12 9 22 23 22 32 -1 9 8 19 22 22 13 4 33 17 44
31 10 13 43 36 72 50 29 15 62 30 72 36 15 8 18 6 13 -7 -4 -9 -2 -17 3 -17
30 -5 35 -1 37 25 3 38 53 77 53 41 0 -8 5 -15 10 -15 6 0 10 7 10 15 0 8 9
15 19 15 11 0 22 4 26 9 3 6 26 13 50 17 25 3 45 11 45 16 0 5 5 6 10 3 6 -4
22 0 35 9 13 9 31 16 40 16 8 0 15 9 15 20 0 25 17 26 23 2 3 -11 5 -7 6 10 0
15 6 30 13 34 7 4 8 3 4 -4 -11 -19 13 -14 45 9 18 13 40 19 54 17 13 -3 26
-1 28 5 4 12 221 36 335 37 71 0 92 4 145 30 85 41 210 72 242 60 14 -5 36 -5
54 0 42 12 183 2 193 -13 6 -9 10 -9 16 0 4 7 44 14 92 18 46 3 87 10 91 16 3
5 13 7 22 3 10 -3 17 -1 17 5 0 8 15 10 46 7 27 -4 43 -2 39 4 -3 5 7 13 22
16 17 5 28 3 31 -4 2 -7 15 -12 29 -12 18 0 24 4 19 15 -3 9 0 15 8 15 8 0 22
3 32 7 11 4 15 3 11 -4 -4 -6 -4 -18 -1 -27 6 -15 8 -15 19 1 7 10 11 21 9 25
-7 11 20 10 50 -2 20 -7 26 -6 26 4 0 21 25 26 59 13 19 -7 31 -18 31 -29 0
-10 6 -18 13 -18 8 0 20 -11 27 -25 7 -14 17 -25 22 -25 4 0 -4 19 -19 43 -27
41 -28 46 -28 179 0 123 -2 138 -17 138 -9 0 -27 15 -40 32 -32 46 -53 65 -65
61 -6 -2 -15 1 -19 8 -5 9 -2 10 10 6 15 -6 17 -1 11 51 -4 37 -13 65 -26 78
-18 19 -19 22 -3 28 11 4 14 13 11 27 -6 23 30 92 44 83 17 -10 31 7 18 22 -9
11 -7 14 10 14 17 0 21 -6 21 -36 0 -24 -4 -33 -12 -28 -7 4 -8 3 -4 -5 4 -6
12 -9 17 -6 5 4 9 -1 9 -10 0 -9 -4 -13 -10 -10 -5 3 -10 -1 -10 -9 0 -17 9
-20 34 -10 13 5 14 9 5 20 -6 8 -9 14 -6 14 3 0 2 13 -3 29 -5 18 -4 33 3 40
7 7 6 15 -3 26 -10 12 -10 18 0 30 7 8 19 15 26 15 18 0 17 5 0 33 -11 18 -14
57 -7 110 1 5 5 6 10 2 6 -3 6 6 1 25 -5 17 -9 33 -9 36 1 16 -10 13 -16 -5
-11 -34 -26 -24 -24 17 2 49 -25 118 -44 114 -9 -1 -18 2 -21 7 -11 17 -56
205 -56 231 0 14 -9 41 -19 61 -10 19 -22 57 -25 85 -6 51 -18 105 -32 138 -5
14 -4 17 4 12 16 -9 15 7 0 22 -9 9 -9 12 2 12 9 0 7 5 -6 15 -13 9 -24 31
-28 57 -4 24 -9 53 -12 65 -4 15 -1 22 13 25 15 4 14 7 -9 18 -26 12 -63 94
-113 250 -10 30 -24 72 -32 93 -7 20 -13 47 -13 59 0 12 -7 29 -15 38 -17 19
-45 155 -45 222 0 26 5 81 11 123 9 61 15 75 27 70 12 -4 12 -3 3 9 -7 8 -8
17 -4 19 12 8 91 -5 111 -17 5 -3 27 1 49 9 23 8 57 15 77 17 19 1 38 8 40 15
3 7 -1 10 -8 7 -19 -7 -28 22 -12 36 10 8 15 7 20 -5 3 -8 12 -15 21 -15 10 0
15 -7 13 -17 -2 -13 3 -17 19 -15 14 2 27 -5 35 -17 7 -12 21 -21 31 -21 11 0
33 -6 50 -14 79 -35 144 -48 222 -46 44 2 94 3 111 3 19 0 44 -9 62 -24 30
-23 38 -37 46 -84 5 -31 24 -72 36 -80 6 -4 17 1 25 11 15 21 6 47 -29 79 -12
11 -16 16 -9 11 9 -6 13 -3 13 7 0 9 -5 19 -10 22 -6 4 -8 15 -5 25 3 9 1 29
-4 44 -16 40 -9 36 72 -37 41 -36 66 -34 32 3 -16 18 -16 18 3 13 11 -2 25
-16 31 -29 15 -33 14 -34 -11 -34 -23 -1 -23 -1 -3 -18 11 -9 21 -28 23 -41 1
-14 4 -27 6 -29 8 -8 45 19 66 48 l21 29 -26 17 c-14 9 -25 26 -25 37 0 16 -3
18 -12 9 -16 -16 -25 -15 -32 5 -4 9 -1 20 6 25 10 6 3 17 -24 42 -21 18 -38
36 -38 39 0 4 24 -7 53 -23 28 -17 64 -35 79 -41 14 -6 29 -21 32 -35 7 -25
26 -34 26 -11 0 6 11 -8 24 -33 16 -31 20 -49 13 -57 -7 -9 -5 -13 7 -13 12 0
14 -5 6 -24 -5 -14 -10 -47 -12 -75 -2 -28 -6 -51 -11 -51 -4 0 -12 -11 -19
-25 -11 -26 2 -55 25 -55 7 0 7 4 -1 12 -17 17 -15 28 4 28 9 0 12 5 8 12 -4
7 -3 8 5 4 30 -19 91 62 179 239 29 61 60 121 67 135 7 14 16 40 20 59 4 19
18 54 31 77 13 24 24 52 24 64 0 12 4 18 10 15 5 -3 7 0 4 9 -3 9 3 20 14 27
11 7 18 18 15 25 -2 6 0 15 6 19 6 3 11 17 11 30 0 13 7 28 15 32 9 5 20 36
26 73 6 36 18 76 26 89 8 13 10 20 4 17 -14 -9 -14 -8 8 55 45 127 52 145 61
162 18 31 39 102 45 151 11 87 16 93 87 100 35 3 80 5 100 5 20 0 39 5 43 11
3 5 17 7 29 4 13 -3 48 2 77 11 39 12 106 18 244 22 105 3 196 10 202 15 25
20 117 -20 107 -46 -4 -10 -19 -12 -55 -9 -46 4 -49 3 -49 -19 0 -15 -3 -19
-8 -10 -11 17 -112 9 -126 -10 -6 -7 -41 -26 -77 -41 -122 -52 -187 -97 -256
-179 -36 -43 -68 -78 -72 -78 -4 0 -13 6 -20 13 -11 10 -13 9 -8 -5 3 -9 1
-19 -6 -22 -9 -3 -9 -5 1 -5 6 -1 12 -5 12 -10 0 -10 -32 -7 -50 4 -5 3 -12
-5 -16 -19 -3 -13 -12 -27 -20 -30 -8 -3 -14 -12 -14 -21 0 -8 -6 -15 -12 -15
-10 0 -10 -3 0 -9 19 -11 11 -46 -10 -46 -9 0 -26 -12 -38 -27 -12 -16 -18
-28 -13 -28 4 0 14 9 21 20 7 11 17 20 22 20 18 0 10 -32 -12 -51 -13 -10 -18
-18 -11 -19 12 0 9 -12 -32 -141 -8 -26 -15 -55 -15 -65 0 -11 -11 -41 -25
-68 -17 -34 -22 -53 -15 -61 10 -12 -3 -63 -29 -120 -9 -18 -17 -57 -24 -110
-7 -45 -36 -135 -63 -188 -8 -16 -14 -36 -14 -44 0 -9 -9 -31 -21 -49 -11 -19
-17 -34 -14 -34 4 0 2 -7 -5 -15 -7 -9 -13 -29 -12 -44 0 -17 -8 -37 -19 -47
-10 -9 -19 -23 -19 -29 0 -7 -7 -15 -15 -19 -23 -9 -18 -45 7 -55 17 -6 26 -4
35 8 8 11 15 13 22 6 11 -11 -6 -82 -34 -142 -8 -17 -15 -35 -15 -41 0 -15
-80 -64 -96 -58 -8 3 -14 -1 -14 -9 0 -17 -14 -19 -40 -5 -14 7 -23 6 -36 -8
-16 -15 -17 -15 -12 0 4 9 0 22 -8 28 -8 7 -14 22 -14 33 l0 21 -19 -21 c-12
-12 -18 -29 -15 -41 4 -12 0 -22 -10 -25 -19 -7 -66 11 -82 32 -10 12 -13 11
-19 -8 -5 -17 -10 -19 -20 -11 -7 6 -11 19 -8 29 3 10 0 22 -6 25 -6 4 -11 3
-11 -3 0 -14 -50 7 -67 27 -11 13 -14 11 -22 -12 -6 -14 -16 -26 -22 -26 -7 0
-8 7 -4 18 4 9 9 26 12 37 l5 20 -19 -20 c-20 -22 -63 -31 -63 -13 0 6 8 17
18 24 12 9 13 13 3 14 -8 0 -11 6 -7 17 5 13 0 11 -20 -7 l-27 -25 6 32 c9 48
-14 53 -39 8 -14 -25 -44 -32 -44 -10 0 9 4 14 9 11 5 -3 11 3 14 14 8 29 -9
24 -42 -12 -23 -25 -32 -30 -42 -21 -6 6 -18 9 -27 5 -11 -4 -14 -1 -10 9 5
12 -3 15 -37 14 -24 0 -47 -3 -51 -7 -12 -13 -34 -9 -34 5 0 9 -10 12 -30 9
-20 -3 -32 1 -36 11 -3 9 -13 13 -26 9 -13 -3 -24 1 -30 11 -4 9 -14 14 -21
11 -7 -2 -22 4 -32 16 -20 22 -51 27 -58 8 -3 -8 -6 -5 -6 6 -1 15 -6 17 -31
13 -24 -5 -36 0 -62 24 -18 17 -45 37 -60 45 -26 13 -28 13 -28 -4 0 -18 49
-64 129 -123 22 -15 42 -33 46 -39 3 -5 10 -8 15 -5 5 3 42 -8 81 -25 39 -17
78 -33 87 -35 67 -13 133 -38 128 -50 -8 -22 16 -37 34 -20 18 16 60 10 60 -9
0 -8 18 -12 50 -13 28 0 57 -6 65 -13 12 -10 15 -9 15 5 0 13 4 15 13 8 12
-10 62 -26 82 -27 6 -1 15 -8 22 -16 11 -13 12 -13 13 2 0 20 24 14 54 -14 11
-10 25 -18 30 -19 6 -1 29 -3 51 -5 22 -2 41 -8 43 -14 2 -6 15 -7 29 -4 22 6
25 4 21 -12 -4 -17 1 -19 45 -17 27 0 62 -3 77 -9 19 -6 41 -6 65 1 34 9 36 8
33 -12 -2 -12 -12 -23 -23 -26 -11 -2 -24 -9 -28 -17 -4 -8 -19 -14 -33 -14
-13 0 -27 -7 -30 -15 -4 -8 -12 -15 -18 -15 -7 0 -18 -11 -25 -24 -15 -27 -79
-66 -109 -66 -15 0 -19 5 -15 20 3 11 -2 27 -12 36 -12 12 -13 20 -5 28 8 8
13 7 20 -4 14 -22 12 -6 -2 22 -16 29 -52 27 -43 -3 4 -11 1 -27 -7 -36 -9
-12 -9 -15 0 -9 6 4 12 2 12 -3 0 -6 5 -10 11 -8 24 5 19 -23 -5 -33 -32 -12
-62 -41 -71 -69 -3 -12 -11 -19 -16 -16 -5 4 -9 -3 -9 -14 0 -14 -5 -19 -15
-15 -11 4 -13 2 -10 -9 4 -8 -3 -30 -14 -48 -14 -23 -17 -35 -9 -40 14 -9 -73
-96 -105 -104 -18 -5 -23 -12 -20 -26 4 -12 -9 -38 -34 -72 -22 -28 -46 -68
-53 -87 -7 -19 -17 -39 -22 -45 -14 -15 -9 -45 8 -45 28 0 83 51 115 108 17
31 46 75 63 97 17 22 40 54 50 70 25 40 266 276 338 331 31 24 103 66 160 93
96 46 110 50 204 57 125 8 149 3 170 -39 9 -17 20 -34 24 -37 4 -3 12 -27 18
-55 5 -27 18 -70 27 -95 20 -52 14 -166 -9 -203 -8 -12 -14 -51 -15 -87 -2
-109 -28 -230 -49 -230 -5 0 -16 -17 -25 -37 -9 -21 -25 -51 -36 -68 -11 -16
-20 -38 -20 -47 -1 -10 -6 -18 -11 -18 -15 0 -30 -44 -17 -51 5 -4 1 -10 -11
-13 -27 -9 -46 -58 -39 -102 4 -25 2 -37 -8 -40 -8 -3 -12 -11 -9 -17 2 -7 -6
-17 -18 -22 -15 -6 -28 -26 -37 -54 -11 -35 -16 -40 -23 -27 -10 17 -38 22
-38 7 0 -5 6 -16 14 -23 17 -17 5 -50 -25 -71 -12 -9 -27 -26 -33 -39 -6 -13
-29 -31 -50 -41 -22 -10 -45 -24 -52 -32 -7 -7 -36 -18 -64 -25 -27 -7 -48
-15 -45 -20 7 -11 -26 -38 -58 -45 -15 -4 -30 -11 -33 -16 -3 -5 -11 -9 -19
-9 -14 0 -25 -10 -115 -95 -25 -23 -56 -46 -70 -50 -14 -4 -32 -13 -40 -20
-25 -21 -89 -37 -131 -33 -32 3 -39 0 -39 -14 0 -23 -14 -30 -65 -33 -24 -2
-47 -5 -52 -8 -17 -10 -161 -8 -168 2 -12 20 -24 11 -19 -15 3 -18 1 -25 -8
-22 -6 2 -12 17 -13 33 0 29 0 29 55 26 30 -1 58 -5 62 -7 9 -6 58 14 58 24 0
5 -14 7 -30 4 -17 -2 -37 2 -46 9 -10 8 -18 9 -22 2 -4 -5 -20 -12 -36 -15
-22 -5 -30 -2 -33 13 -6 21 -28 25 -38 9 -4 -6 -30 -29 -58 -51 -75 -58 -253
-235 -300 -297 -22 -28 -43 -52 -46 -52 -4 0 -15 -17 -25 -37 -19 -39 -28 -51
-123 -152 -34 -36 -95 -108 -137 -160 -105 -131 -299 -328 -387 -394 -72 -54
-87 -61 -219 -91 -14 -3 -36 -15 -50 -26 -77 -62 -202 -133 -340 -194 -19 -9
-48 -24 -65 -34 -16 -10 -37 -17 -45 -15 -9 2 -28 -7 -43 -21 -14 -13 -36 -27
-47 -31 -11 -3 -20 -10 -20 -14 0 -5 -21 -14 -47 -21 -27 -8 -50 -17 -53 -21
-3 -4 -21 -14 -40 -23 -19 -9 -53 -26 -75 -38 -55 -29 -197 -78 -207 -72 -5 3
-14 2 -21 -4 -7 -5 -32 -14 -57 -20 -25 -6 -74 -18 -110 -27 -36 -9 -83 -21
-105 -25 -22 -5 -85 -21 -140 -36 -116 -31 -202 -50 -263 -58 -24 -3 -48 -8
-53 -11 -5 -4 -46 -11 -92 -16 -93 -11 -105 -13 -130 -24 -9 -4 -23 -5 -30 -2
-15 6 -105 -16 -136 -32 -21 -12 -42 -11 -51 1 -6 8 -90 -18 -104 -33 -20 -19
3 -19 48 0 25 11 46 17 46 12 0 -4 -30 -20 -67 -35 -38 -15 -76 -32 -86 -37
-10 -5 -17 -5 -17 0 0 5 7 12 16 15 26 10 10 18 -20 10 -21 -5 -24 -9 -15 -20
16 -20 -13 -24 -214 -28 -154 -2 -179 -1 -187 13 -7 12 -9 5 -10 -25 0 -36 3
-42 23 -42 12 -1 98 -3 192 -4 l170 -3 70 36 c99 52 149 67 284 84 65 9 131
19 147 24 16 4 36 6 44 3 17 -5 45 -32 49 -47 1 -5 12 -9 24 -8 15 1 23 -5 23
-15 1 -10 4 -26 8 -37 7 -18 6 -18 -12 3 -37 41 -45 24 -14 -31 16 -28 39 -86
52 -127 91 -304 131 -397 177 -414 15 -6 15 -4 -2 14 -10 11 -16 22 -13 25 3
3 13 -4 22 -14 15 -17 21 -18 38 -8 16 9 22 9 25 0 2 -7 11 -9 19 -6 8 3 14 0
14 -6 0 -6 -4 -11 -9 -11 -5 0 -9 -10 -8 -22 0 -13 -3 -32 -7 -43 -5 -14 -3
-14 5 2 11 22 29 31 29 16 0 -3 -13 -34 -29 -67 -65 -134 -111 -260 -98 -268
20 -13 21 -11 46 70 13 42 30 86 38 97 7 11 13 26 13 35 0 8 7 29 16 45 9 17
24 50 33 75 10 25 21 54 26 65 4 11 9 29 10 40 2 11 6 36 9 55 3 19 8 68 10
109 5 78 11 94 27 71 9 -13 10 -13 8 0 -3 28 1 40 14 40 6 0 23 9 36 19 14 10
31 17 38 14 8 -3 13 -1 11 6 -3 12 30 32 152 91 173 84 190 90 190 68 0 -7 5
-5 11 5 8 14 18 16 45 11 29 -5 33 -4 28 10 -4 11 0 16 14 16 11 0 25 7 32 15
14 17 40 20 40 5 0 -5 -5 -10 -12 -10 -6 0 -8 -3 -5 -7 4 -3 15 1 24 9 10 8
32 18 48 22 l30 6 -29 -26 -30 -26 32 7 c27 5 31 4 26 -9 -3 -9 -10 -16 -14
-16 -4 0 -12 -17 -17 -38 -7 -28 -14 -36 -27 -34 -11 2 -15 -1 -11 -7 3 -6 -1
-11 -9 -11 -9 0 -16 -7 -16 -17 0 -14 2 -14 20 2 11 10 22 16 24 14 7 -9 -25
-69 -38 -69 -12 0 -46 -56 -46 -77 0 -4 -17 -44 -39 -88 -21 -44 -61 -125 -87
-180 -27 -54 -48 -103 -46 -107 1 -5 -4 -11 -13 -14 -8 -3 -17 -21 -21 -40 -3
-19 -11 -34 -18 -34 -6 0 -29 -27 -50 -60 -22 -33 -42 -60 -45 -60 -3 0 -24
-16 -45 -36 -46 -42 -100 -66 -183 -79 -31 -4 -44 -15 -37 -27 4 -7 0 -7 -12
0 -25 12 -162 13 -169 1 -4 -5 8 -9 24 -9 37 0 41 -16 7 -22 -25 -5 -55 7 -68
26 -5 7 -8 5 -8 -6 0 -26 56 -66 104 -73 53 -8 124 0 180 22 22 8 57 16 76 17
46 1 134 46 187 93 23 21 53 48 67 60 15 12 51 59 81 105 30 46 63 94 73 108
11 14 38 64 60 111 42 87 76 121 100 97 8 -8 13 -7 17 5 4 9 13 13 21 10 8 -3
14 1 14 10 0 10 26 22 83 37 96 26 279 85 322 104 36 16 156 52 205 61 19 4
104 40 187 81 84 41 155 74 158 74 3 0 24 9 48 19 23 11 76 31 117 44 41 14
120 42 175 62 55 20 111 40 125 44 14 5 54 22 90 38 36 17 76 33 90 37 14 4
43 15 65 25 22 10 67 26 100 36 60 17 82 26 223 91 41 19 76 34 78 34 7 0 118
54 124 60 3 3 30 18 60 34 30 16 66 37 80 46 14 10 77 43 140 75 63 32 132 70
153 83 20 14 40 23 42 20 3 -2 7 -50 9 -105 4 -98 9 -131 46 -303 10 -47 21
-105 24 -130 4 -25 11 -74 16 -110 13 -93 59 -450 70 -550 9 -77 52 -238 85
-315 30 -73 35 -87 35 -109 0 -15 7 -26 20 -29 12 -3 20 -14 20 -26 0 -13 6
-21 18 -21 10 0 25 -13 35 -29 9 -15 30 -34 46 -41 30 -12 46 -34 35 -51 -3
-5 5 -9 18 -10 13 0 17 -3 9 -6 -9 -4 4 -21 40 -54 29 -26 56 -46 61 -43 4 3
8 -2 8 -10 0 -9 5 -16 11 -16 5 0 7 -4 4 -10 -3 -5 1 -10 9 -10 8 0 27 -5 43
-12 51 -21 116 -26 137 -10 6 5 35 10 65 11 30 1 62 6 72 12 10 5 28 9 41 10
13 0 41 11 63 24 65 38 105 55 129 53 23 -2 86 36 86 52 0 12 141 120 157 120
12 0 27 37 21 56 -5 18 20 69 56 117 20 26 36 51 36 56 0 5 6 16 13 23 58 59
135 214 135 273 1 22 12 76 26 120 13 44 27 105 31 135 4 30 15 98 26 152 14
72 19 137 18 257 0 215 25 449 55 496 29 46 67 194 76 294 18 198 43 281 85
281 8 0 23 13 34 29 23 32 70 53 171 76 67 15 110 29 110 35 0 4 21 11 46 15
26 3 70 19 99 35 49 27 54 27 81 14 36 -19 71 -5 80 31 3 14 11 25 16 25 6 0
7 14 3 38 -4 20 -9 105 -12 188 l-4 152 63 10 c35 6 99 14 143 18 98 9 181 43
195 80 15 39 12 84 -9 144 -32 89 -87 203 -111 228 -37 39 -20 63 115 167 33
25 83 64 110 85 28 22 66 47 85 57 35 16 88 53 124 85 10 9 39 27 63 38 64 30
298 194 363 255 30 28 71 62 90 75 34 23 89 72 235 210 39 36 106 97 149 135
91 78 182 169 235 234 20 25 51 61 69 81 19 19 45 50 60 68 17 23 31 32 44 29
14 -4 18 -1 16 12 -2 10 7 29 19 42 42 45 123 160 164 232 22 40 47 79 55 88
8 8 14 30 14 47 0 17 11 66 25 108 27 83 33 156 13 151 -7 -1 -14 8 -16 20 -3
19 -18 25 -113 48 -60 14 -153 30 -206 35 -54 4 -106 11 -116 15 -10 4 -44 2
-75 -5 -66 -14 -76 -14 -317 -8 -107 3 -213 11 -260 20 -204 41 -249 45 -425
38 -36 -1 -73 1 -83 5 -9 4 -23 2 -30 -3 -7 -6 -65 -14 -130 -18 -106 -6 -117
-5 -117 10 0 15 -8 16 -72 11 -138 -13 -149 -15 -241 -47 -48 -18 -70 -34
-137 -106 -79 -85 -80 -85 -142 -94 -35 -5 -64 -13 -66 -18 -2 -6 -9 -10 -17
-10 -7 0 -18 -7 -25 -15 -6 -7 -35 -27 -63 -44 -29 -16 -77 -54 -107 -83 -30
-30 -81 -66 -112 -81 -31 -15 -58 -31 -60 -35 -5 -12 -98 -66 -158 -91 -30
-13 -67 -32 -82 -42 -14 -11 -32 -19 -40 -19 -7 0 -25 -10 -40 -23 -35 -29
-78 -54 -303 -177 -44 -23 -87 -49 -95 -56 -8 -7 -42 -22 -75 -35 -33 -12 -72
-30 -87 -40 -14 -11 -31 -19 -37 -19 -6 0 -11 -4 -11 -10 0 -5 -7 -10 -15 -10
-8 0 -32 -16 -54 -35 -21 -19 -44 -35 -50 -35 -7 0 -24 -13 -39 -29 -15 -16
-38 -32 -51 -36 -22 -7 -23 -5 -18 26 2 19 1 57 -4 85 -6 30 -6 61 -1 75 5 14
5 38 0 57 -7 25 -14 32 -33 32 -18 0 -25 5 -25 20 0 49 -82 170 -114 170 -8 0
-20 9 -27 21 -7 14 -17 19 -30 16 -10 -3 -22 -1 -25 4 -14 23 -129 5 -193 -30
-42 -23 -48 1 -18 74 15 36 27 80 27 98 0 34 22 165 39 232 13 55 106 405 130
490 11 39 24 95 30 125 5 30 17 75 25 99 9 24 16 52 16 62 0 30 69 228 106
305 30 60 41 73 79 92 24 12 52 34 61 49 16 26 51 66 130 146 35 36 133 74
138 54 2 -7 9 -32 16 -55 10 -38 14 -43 33 -38 12 3 52 9 89 12 l68 7 -6 39
c-4 21 -3 38 2 37 31 -6 72 17 103 57 37 49 37 53 -2 175 l-15 46 82 6 c89 7
220 43 210 58 -3 6 -13 8 -22 5 -57 -17 -243 -30 -260 -18 -11 8 -12 20 -2 65
6 30 18 58 26 61 8 3 45 8 82 11 133 12 129 10 137 63 4 26 14 60 23 75 19 31
60 47 72 27 6 -9 9 -9 11 -1 3 7 11 13 19 14 8 2 22 7 30 12 37 23 139 73 163
79 17 4 29 1 34 -7 4 -8 17 -17 28 -21 11 -5 15 -10 9 -12 -11 -5 -11 -75 1
-93 11 -18 23 -12 18 8 -5 19 42 101 58 101 5 0 9 5 9 12 0 21 102 106 153
127 44 19 48 19 36 3 -8 -9 -21 -22 -29 -29 -29 -24 6 -13 40 12 19 14 42 25
51 25 10 0 21 5 24 10 10 16 76 47 118 54 34 6 38 5 48 -21 6 -15 21 -42 35
-60 20 -27 24 -43 24 -107 0 -41 4 -78 10 -81 6 -4 7 18 3 58 -5 58 -3 66 18
88 14 13 30 44 38 69 21 70 32 92 26 50 -2 -19 -7 -75 -9 -125 l-5 -90 16 50
c8 28 18 52 23 55 7 5 23 46 25 65 2 28 19 80 29 92 6 7 25 29 41 49 17 20 51
57 77 84 41 41 55 48 100 55 41 5 49 9 33 15 -19 8 -19 9 3 9 12 1 24 1 27 1
3 0 15 8 26 19 14 13 42 22 83 26 70 7 136 3 130 -7 -3 -4 -19 -5 -37 -3 -23
3 -19 1 11 -8 24 -7 48 -21 55 -32 20 -38 40 -46 95 -41 28 2 52 1 52 -3 0 -6
27 -15 113 -38 11 -3 17 1 17 12 0 12 6 15 23 9 45 -14 53 -23 20 -24 -18 0
-33 -4 -33 -10 0 -5 -7 -10 -15 -10 -9 0 -19 -8 -22 -17 -4 -10 -12 -22 -18
-28 -7 -5 -15 -19 -19 -30 -6 -18 -5 -19 7 -3 15 19 29 14 21 -7 -3 -7 -1 -16
5 -20 6 -3 11 1 11 10 0 9 4 14 9 10 6 -3 9 7 8 21 -2 21 4 29 27 37 16 5 45
20 64 33 35 24 68 32 57 14 -4 -6 5 -5 22 1 37 15 174 20 191 7 6 -6 12 -19
12 -29 0 -9 6 -24 13 -31 6 -7 12 -30 13 -50 2 -51 39 -126 96 -193 21 -25 38
-171 34 -293 -2 -72 -7 -93 -27 -124 -32 -49 -72 -72 -114 -65 -21 3 -40 0
-52 -8 -10 -8 -30 -15 -45 -15 -16 0 -28 -4 -28 -10 0 -5 7 -10 15 -10 8 0 15
-4 15 -10 0 -5 -11 -10 -25 -10 -14 0 -30 -9 -37 -20 -7 -11 -20 -20 -28 -21
-8 0 -4 -5 10 -11 23 -10 23 -11 5 -16 -11 -2 -31 -13 -45 -25 l-25 -20 28 7
c19 4 26 3 22 -4 -3 -5 -13 -10 -21 -10 -8 0 -50 -18 -92 -39 -56 -29 -94 -41
-141 -45 -61 -6 -191 9 -191 22 0 3 15 18 33 34 26 23 28 28 10 23 -76 -21
-232 -4 -226 24 2 7 -17 11 -53 11 -44 0 -54 3 -46 13 8 9 -8 13 -74 15 -70 2
-90 7 -120 27 -20 14 -41 25 -46 25 -15 0 10 -37 44 -64 28 -22 30 -28 18 -36
-8 -5 -31 -10 -50 -11 l-35 -1 33 -8 c18 -4 49 -4 69 0 19 5 45 5 57 1 l21 -8
-22 -7 c-13 -4 -41 -23 -64 -42 -57 -48 -97 -67 -124 -60 -17 4 -22 2 -21 -11
1 -12 -19 -25 -64 -45 -55 -24 -74 -27 -120 -22 -78 8 -101 15 -97 28 4 11 -7
18 -70 51 -18 10 -33 21 -33 25 0 4 -11 19 -25 34 -46 49 -131 171 -145 206
-17 44 -51 102 -56 97 -3 -2 0 -16 5 -31 9 -21 8 -26 -4 -26 -8 0 -15 -7 -15
-15 0 -17 -42 -30 -67 -21 -15 6 -15 5 1 -13 17 -19 17 -21 1 -37 -15 -16 -19
-16 -52 0 -29 14 -34 21 -31 41 4 17 -4 33 -23 55 -16 17 -29 34 -29 38 0 9
-41 35 -46 29 -8 -7 24 -58 45 -73 12 -9 21 -20 21 -27 0 -8 -3 -8 -12 1 -7 7
-16 12 -20 12 -4 0 10 -18 32 -40 52 -52 112 -77 147 -61 21 10 23 14 13 26
-7 9 -10 19 -6 22 4 4 11 1 16 -6 7 -12 10 -12 22 0 8 8 13 21 11 29 -3 8 5 4
16 -10 11 -14 19 -30 17 -36 -9 -24 170 -240 249 -299 107 -81 311 -41 500 99
l60 45 102 0 c99 1 212 -18 321 -55 45 -15 120 -18 195 -8 33 5 47 12 50 25 3
11 13 19 22 19 9 0 37 14 63 32 26 18 58 33 72 34 50 3 51 4 45 23 -4 14 2 21
25 31 16 7 30 19 30 26 0 8 7 14 15 14 23 0 113 46 140 72 14 13 25 31 25 41
0 9 5 17 10 17 21 0 52 39 64 82 10 32 12 73 6 153 -6 98 -12 121 -49 207 -22
53 -41 107 -41 119 0 20 -39 96 -62 124 -5 5 -17 26 -26 45 -21 44 -81 75
-137 72 -22 -2 -92 -4 -155 -5 -103 -1 -124 1 -200 27 -106 36 -121 43 -191
84 -46 27 -68 33 -116 34 -87 1 -201 -42 -261 -100 -24 -22 -57 -36 -79 -33
-25 3 -63 -15 -63 -29 0 -5 -14 -30 -31 -55 -17 -25 -32 -57 -34 -71 -2 -25
-15 -47 -15 -26 0 7 -8 12 -19 12 -12 0 -26 -16 -42 -50 -13 -27 -26 -50 -29
-50 -3 0 -14 12 -25 27 -44 60 -114 109 -140 99 -7 -2 -15 -15 -17 -27 -2 -17
-17 -26 -68 -42 -99 -30 -174 -60 -188 -74 -7 -7 -18 -13 -24 -13 -5 0 -41
-30 -79 -66 l-68 -66 -31 26 c-34 28 -85 35 -121 15 -15 -8 -18 -14 -9 -23 8
-10 4 -16 -17 -24 -47 -17 -117 -35 -141 -36 -13 -1 -27 -8 -31 -15 -5 -7 -12
-12 -17 -11 -9 2 -39 -66 -48 -112 -6 -26 -8 -27 -108 -34 -108 -9 -146 -8
-163 5 -13 11 -161 61 -178 61 -7 0 -22 8 -33 18 -10 10 -48 24 -84 32 -36 7
-92 24 -125 38 -38 15 -61 20 -63 13 -3 -8 -9 -8 -23 0 -22 11 -16 31 6 22 8
-3 15 -1 15 4 0 10 -82 31 -99 25 -25 -8 -10 -24 17 -17 20 5 24 4 15 -5 -17
-18 -68 -3 -83 25 -7 14 -23 26 -34 26 -12 1 -39 3 -62 4 -22 2 -58 11 -80 21
-42 19 -50 21 -106 30 l-38 6 0 58 c0 88 -31 175 -89 246 -27 34 -52 77 -56
95 -12 62 -16 68 -64 103 -128 91 -215 98 -247 19 -39 -99 -76 -144 -112 -138
-105 19 -132 29 -132 47 0 22 -82 63 -106 54 -7 -3 -13 0 -11 6 1 6 -17 17
-40 25 l-41 14 1 58 c2 59 -7 86 -66 211 -16 35 -33 78 -37 95 -4 16 -9 37
-11 45 -2 8 -11 20 -19 27 -13 10 -13 12 3 18 19 8 23 31 5 37 -6 2 -13 11
-14 19 -7 32 -38 114 -46 120 -4 3 -12 25 -17 50 -37 172 -80 242 -163 262
-25 7 -28 5 -28 -18z m77 -347 c35 -40 76 -131 75 -167 -1 -23 7 -46 23 -67
14 -18 25 -44 25 -58 0 -14 5 -28 11 -32 6 -3 9 -23 7 -44 -2 -21 2 -42 9 -48
13 -13 29 -100 19 -109 -4 -4 -28 -1 -54 6 -69 20 -138 29 -222 31 -69 1 -78
3 -109 31 -19 18 -33 41 -33 53 0 12 18 69 41 125 22 57 41 108 41 115 0 6 7
24 15 40 8 16 18 46 21 68 12 70 88 103 131 56z m161 -65 c0 -5 2 -16 7 -26 4
-10 5 -21 1 -24 -7 -7 -25 39 -19 50 2 4 6 7 9 7 2 0 3 -3 2 -7z m-1018 -100
l21 -28 -6 28 c-4 19 -2 26 5 22 5 -3 10 -13 10 -21 0 -17 16 -19 24 -1 6 14
56 -40 56 -61 0 -23 29 -70 46 -74 17 -3 62 -81 158 -273 65 -127 75 -194 39
-243 -19 -26 -19 -28 -1 -57 10 -16 18 -25 18 -20 0 6 5 3 10 -5 8 -12 10 -12
10 -1 0 8 3 11 6 8 10 -10 13 -68 4 -62 -4 3 -10 -1 -13 -9 -3 -8 1 -17 9 -20
8 -3 14 -15 14 -26 0 -11 5 -20 10 -20 7 0 8 -23 5 -62 -3 -35 -2 -69 3 -77
15 -22 42 -5 60 39 11 24 22 38 30 35 9 -3 8 2 -3 17 -30 44 -10 218 26 218
12 0 12 67 0 74 -5 4 -12 -12 -16 -34 -7 -42 -15 -49 -33 -27 -9 10 -5 22 13
50 30 44 31 47 3 39 -17 -4 -20 -2 -15 13 6 15 3 16 -20 10 -24 -6 -25 -5 -13
10 10 12 11 21 3 34 -6 10 -9 29 -6 44 5 28 17 35 28 17 3 -5 18 -10 33 -10
25 1 26 1 7 12 -11 6 -24 18 -29 26 -7 12 -10 12 -18 1 -7 -10 -8 -9 -4 6 4
15 -5 27 -34 48 -22 16 -40 35 -40 43 0 8 -7 14 -15 14 -8 0 -15 7 -15 15 0 9
-6 18 -14 21 -12 5 -28 40 -30 69 -1 6 -6 10 -13 10 -7 0 -30 19 -52 42 -23
23 -61 54 -86 69 -30 17 -47 35 -51 52 -3 15 -7 33 -10 40 -2 6 1 12 7 12 17
0 148 -72 165 -91 10 -11 26 -19 36 -19 31 0 97 -52 181 -141 43 -46 89 -96
103 -110 14 -15 31 -37 38 -50 6 -13 20 -28 31 -34 11 -5 27 -14 35 -20 16
-10 51 -8 60 4 3 3 18 15 33 25 l29 18 -6 -29 c-5 -22 -3 -30 7 -30 7 0 13 10
13 21 -1 13 7 22 19 24 17 4 18 3 5 -13 -14 -17 -13 -17 5 -8 41 22 207 -7
227 -40 4 -6 -1 -20 -10 -31 -16 -18 -16 -19 0 -13 11 4 18 -1 22 -17 3 -13
15 -26 26 -29 l21 -5 -21 33 c-27 44 -26 46 20 24 23 -11 38 -24 35 -29 -4 -6
1 -10 9 -10 9 0 16 8 16 18 0 14 2 15 10 2 8 -13 11 -13 19 -1 5 8 16 11 25 8
19 -7 22 -37 4 -38 -15 0 30 -20 52 -23 36 -5 92 -37 97 -57 5 -16 11 -19 31
-14 32 8 42 -7 41 -65 -1 -74 -9 -84 -65 -86 -28 -1 -71 -9 -97 -18 -26 -9
-59 -16 -72 -16 -14 0 -25 -4 -25 -10 0 -5 -9 -10 -20 -10 -37 0 -147 -58
-153 -80 -4 -17 0 -20 24 -20 16 0 46 7 66 15 19 8 47 15 62 15 35 0 55 15 48
34 -4 10 -1 16 8 16 8 0 15 -4 15 -10 0 -5 7 -10 15 -10 9 0 20 -11 25 -25 5
-14 16 -25 24 -25 7 0 17 -7 20 -16 20 -53 -49 -85 -124 -57 -25 9 -52 22 -61
30 -16 13 -61 18 -72 7 -11 -11 15 -52 40 -63 16 -8 23 -17 19 -27 -4 -12 -1
-14 14 -9 11 4 20 2 20 -4 0 -6 7 -8 15 -5 11 5 14 1 9 -12 -5 -15 -4 -16 4
-5 6 8 28 15 50 17 47 3 112 24 112 37 0 4 4 6 8 3 5 -3 22 -1 38 4 28 8 28 9
7 15 -24 8 -29 20 -13 30 6 3 10 1 10 -4 0 -20 36 -11 59 13 13 14 29 22 37
19 8 -3 27 0 44 6 20 6 39 7 55 1 15 -6 44 -6 71 -1 52 10 101 -4 109 -30 6
-19 -14 -70 -32 -82 -7 -4 -15 -22 -18 -40 -11 -58 -12 -62 -20 -82 -4 -11
-18 -42 -30 -69 -21 -45 -23 -48 -33 -29 -6 11 -8 23 -5 27 10 9 -28 7 -69 -4
-40 -11 -61 -31 -31 -28 10 0 35 0 56 0 32 -2 37 -5 37 -26 0 -41 63 -73 75
-37 3 11 21 25 40 31 20 7 53 33 82 67 26 31 66 76 88 100 41 45 73 111 74
150 1 30 26 52 53 46 53 -13 267 -75 313 -92 28 -10 84 -26 125 -36 41 -10 79
-21 84 -26 6 -5 27 -9 49 -9 33 0 38 -3 32 -19 -4 -13 0 -20 15 -24 14 -4 20
0 20 11 0 12 4 11 20 -6 16 -17 27 -21 47 -16 18 5 24 4 19 -5 -4 -6 -27 -16
-52 -22 -44 -11 -44 -12 -27 -31 10 -11 19 -15 21 -9 4 13 32 15 32 2 0 -5
-13 -12 -30 -16 -16 -4 -30 -10 -30 -13 0 -4 -22 -15 -50 -25 -48 -17 -100
-57 -100 -77 0 -6 -5 -10 -11 -10 -6 0 -24 -11 -41 -25 -16 -14 -35 -25 -43
-25 -7 0 -15 -7 -19 -15 -9 -26 -52 -35 -189 -41 -73 -4 -136 -10 -142 -14 -5
-4 -25 -7 -42 -5 -18 1 -33 -1 -33 -5 0 -4 -14 -6 -31 -4 -16 2 -28 0 -25 -4
2 -4 -21 -8 -52 -9 -58 -2 -306 -48 -326 -61 -6 -3 -15 -7 -21 -7 -27 -2 -112
-17 -125 -22 -22 -9 -21 -9 -75 -17 -99 -16 -310 -96 -253 -96 9 0 19 4 22 9
8 12 55 20 62 10 3 -5 10 -9 15 -9 6 0 8 4 5 9 -9 14 161 50 292 61 64 6 122
12 127 14 6 2 18 0 28 -3 13 -5 -20 -21 -103 -51 -67 -24 -132 -52 -145 -62
-13 -10 -28 -18 -34 -18 -6 0 -11 -4 -11 -9 0 -5 -8 -11 -17 -15 -28 -9 -55
-28 -98 -70 -22 -21 -56 -49 -77 -62 -20 -13 -39 -28 -43 -34 -3 -5 -15 -10
-26 -10 -10 0 -19 -4 -19 -8 0 -5 -18 -17 -40 -28 -22 -10 -42 -25 -45 -32 -2
-7 0 -10 5 -7 6 3 10 2 10 -4 0 -15 -69 -49 -136 -66 -60 -15 -98 -27 -183
-57 -29 -10 -56 -16 -59 -14 -2 3 -19 -6 -37 -19 -35 -27 -45 -30 -45 -15 0 6
6 10 14 10 7 0 19 7 26 15 13 15 3 15 -77 -1 -17 -3 -23 0 -23 13 -1 11 -8 4
-18 -17 -14 -28 -23 -35 -49 -37 -26 -1 -31 2 -26 15 6 16 5 16 -13 0 -11 -9
-35 -20 -54 -23 -19 -3 -39 -10 -44 -15 -11 -11 -36 6 -36 25 0 7 -14 0 -31
-16 -38 -36 -47 -36 -59 -3 -6 14 -18 28 -28 31 -10 2 -24 17 -31 34 -18 42
-33 36 -15 -7 8 -20 10 -33 5 -29 -6 3 -11 11 -11 16 0 14 -26 39 -39 39 -6 0
-18 12 -27 28 -50 81 -59 92 -76 86 -13 -4 -18 3 -24 31 -3 20 -15 40 -26 46
-11 6 -26 26 -34 44 -7 19 -18 36 -23 39 -5 3 -17 41 -26 83 -9 42 -23 83 -31
91 -18 18 -18 83 1 108 8 10 15 29 15 42 0 12 8 39 19 60 10 20 26 62 36 92
10 30 20 59 23 64 12 21 21 -34 23 -139 1 -60 4 -94 6 -75 3 19 10 41 16 48 8
10 7 16 -4 23 -13 8 -6 13 14 10 4 0 7 6 7 14 0 9 -6 12 -17 8 -13 -5 -15 -2
-10 11 4 10 7 30 8 44 0 24 1 25 9 7 5 -11 9 -15 10 -10 0 6 3 27 6 47 5 32 3
37 -10 32 -12 -4 -16 0 -16 15 0 12 5 21 10 21 6 0 10 -4 10 -10 0 -5 4 -10 8
-10 4 0 8 18 9 40 2 31 -2 40 -15 41 -13 0 -12 3 5 11 22 10 26 21 38 106 4
23 11 42 16 42 5 0 9 11 9 24 0 27 25 92 39 100 5 4 24 -13 41 -36 l32 -43 -5
40 c-3 22 -9 61 -13 88 -6 46 -2 53 29 48 12 -2 8 14 -18 87 -14 38 -25 78
-25 89 0 12 -7 26 -15 33 -8 7 -15 17 -15 22 0 5 -23 64 -51 129 -28 66 -52
126 -53 134 -1 9 -8 21 -14 27 -7 7 -12 21 -12 33 0 11 -6 29 -14 40 -12 18
-25 57 -33 95 -1 8 -5 27 -9 43 -4 18 -2 27 6 27 9 0 9 4 2 13 -12 15 -21 77
-11 77 3 0 17 -27 29 -60 24 -63 34 -73 43 -40 3 11 2 20 -2 20 -10 0 -47 69
-55 103 -4 16 -2 27 4 27 5 0 10 -3 10 -7 0 -5 9 -23 21 -42 28 -46 45 -22 18
26 -22 38 -23 43 -10 43 5 0 19 -12 31 -27z m1050 -118 c0 -8 -4 -15 -9 -15
-5 0 -14 7 -21 15 -10 13 -9 15 9 15 12 0 21 -6 21 -15z m-815 -75 c3 -5 1
-10 -4 -10 -6 0 -11 5 -11 10 0 6 2 10 4 10 3 0 8 -4 11 -10z m30 -10 c3 -5 1
-10 -4 -10 -6 0 -11 5 -11 10 0 6 2 10 4 10 3 0 8 -4 11 -10z m30 -40 c3 -5 2
-10 -4 -10 -5 0 -13 5 -16 10 -3 6 -2 10 4 10 5 0 13 -4 16 -10z m19 -45 c3
-8 1 -15 -4 -15 -6 0 -10 7 -10 15 0 8 2 15 4 15 2 0 6 -7 10 -15z m6 -35 c0
-5 -2 -10 -4 -10 -3 0 -8 5 -11 10 -3 6 -1 10 4 10 6 0 11 -4 11 -10z m35 -50
c3 -5 2 -10 -4 -10 -5 0 -13 5 -16 10 -3 6 -2 10 4 10 5 0 13 -4 16 -10z m52
-46 c-3 -3 -12 -4 -19 -1 -8 3 -5 6 6 6 11 1 17 -2 13 -5z m13 -104 c0 -5 -5
-10 -11 -10 -5 0 -7 5 -4 10 3 6 8 10 11 10 2 0 4 -4 4 -10z m-260 -335 c0 -8
-2 -15 -4 -15 -2 0 -6 7 -10 15 -3 8 -1 15 4 15 6 0 10 -7 10 -15z m320 -46
c0 -16 -4 -29 -10 -29 -5 0 -10 16 -10 36 0 21 4 33 10 29 6 -3 10 -19 10 -36z
m-483 -300 c-8 -21 -13 -26 -15 -15 -2 10 2 23 8 31 18 22 20 18 7 -16z m2953
-69 c0 -5 -4 -10 -10 -10 -5 0 -10 5 -10 10 0 6 5 10 10 10 6 0 10 -4 10 -10z
m-190 -40 c0 -5 -5 -10 -11 -10 -5 0 -7 5 -4 10 3 6 8 10 11 10 2 0 4 -4 4
-10z m74 -164 c-7 -17 -32 -28 -45 -20 -14 8 10 34 32 34 12 0 16 -5 13 -14z
m2044 -158 c17 -5 32 -13 32 -18 0 -21 -94 -26 -149 -9 -20 7 -43 14 -51 17
-10 3 -2 9 20 17 36 13 90 11 148 -7z m-2781 -20 c-10 -61 -80 -250 -100 -268
-10 -10 -16 -23 -12 -29 4 -7 1 -10 -7 -9 -9 2 -13 -9 -14 -37 -1 -22 -13 -74
-28 -115 -15 -41 -37 -104 -48 -140 -56 -175 -80 -246 -90 -257 -5 -7 -24 -51
-41 -98 -18 -46 -35 -85 -39 -85 -77 -1 -83 0 -105 33 -29 43 -29 65 1 73 16
4 27 17 34 41 6 20 9 40 6 44 -2 5 2 24 10 44 17 40 15 43 -60 106 -33 27 -60
79 -100 187 -12 35 -27 68 -32 75 -20 23 -52 123 -52 159 0 32 6 40 52 74 78
55 240 130 348 159 52 14 129 36 170 49 106 34 114 33 107 -6z m233 -384 c-18
-21 -24 -10 -9 18 8 14 14 18 17 10 2 -7 -2 -19 -8 -28z m-1002 4 c-2 -29 -16
-48 -45 -59 -19 -7 -22 -14 -17 -34 5 -21 3 -25 -15 -25 -12 0 -33 -7 -46 -16
-13 -9 -28 -13 -34 -10 -5 3 -11 -1 -15 -9 -3 -8 -1 -15 5 -15 6 0 8 -3 6 -7
-7 -10 -120 -66 -181 -89 -27 -11 -51 -27 -54 -36 -2 -10 -12 -18 -22 -18 -10
0 -26 -3 -34 -6 -12 -5 -15 -2 -9 11 5 15 3 17 -18 11 -13 -4 -32 -8 -41 -7
-27 0 -21 -16 7 -23 14 -4 23 -11 20 -17 -8 -12 39 -2 72 15 83 43 191 96 197
96 3 0 5 -3 5 -7 -5 -32 23 -48 34 -19 3 7 15 16 26 19 12 3 19 2 16 -3 -3 -4
6 -7 20 -6 28 1 31 6 13 24 -9 9 -8 15 8 27 10 8 27 15 36 15 9 0 19 6 22 13
5 10 7 10 12 0 3 -7 11 -13 18 -13 7 0 20 -8 28 -17 17 -20 20 -53 5 -53 -5 0
-7 7 -3 15 7 19 -3 19 -28 0 -19 -14 -19 -15 -2 -15 26 0 5 -24 -34 -40 -17
-7 -30 -20 -30 -29 0 -10 3 -12 8 -5 4 6 14 13 23 16 13 5 16 2 12 -13 -3 -10
-13 -20 -22 -20 -16 -1 -22 0 -53 8 -10 3 -18 0 -18 -6 0 -6 8 -11 18 -11 10
0 24 -11 32 -24 l13 -25 28 22 c16 11 29 27 29 34 0 7 9 17 20 23 11 6 20 20
20 30 0 11 7 20 15 20 9 0 19 8 22 18 15 39 59 36 49 -4 -4 -14 -2 -24 5 -24
16 0 41 29 34 40 -3 5 -1 10 5 10 7 0 9 -12 5 -34 -10 -49 26 -116 63 -117 23
-2 24 -2 4 -6 -12 -2 -20 -9 -16 -14 3 -5 2 -9 -3 -8 -22 4 -24 -3 -7 -22 19
-22 19 -22 -8 -15 -18 4 -28 2 -28 -5 0 -6 -7 -9 -15 -5 -8 3 -15 1 -15 -5 0
-6 -4 -8 -9 -4 -5 3 -12 1 -16 -5 -3 -5 2 -10 12 -11 14 0 15 -2 3 -6 -8 -3
-26 -14 -39 -24 -13 -11 -33 -19 -45 -19 -18 0 -16 3 12 20 40 25 42 36 2 15
-16 -8 -36 -15 -46 -15 -10 0 -14 -5 -11 -14 3 -8 -1 -17 -10 -20 -10 -4 -13
-2 -10 8 5 12 1 12 -30 0 -19 -9 -42 -13 -50 -10 -7 3 -21 2 -31 -3 -32 -16
-136 -43 -177 -46 -22 -1 -51 2 -65 7 -14 6 -32 11 -41 13 -8 2 -33 11 -55 21
-45 21 -48 21 -91 23 -26 1 -31 4 -26 18 4 11 3 14 -5 9 -7 -4 -12 -1 -12 8 0
9 9 16 21 16 11 0 18 4 14 10 -3 5 -13 6 -23 3 -9 -3 3 12 28 35 40 37 56 44
128 56 13 3 28 9 35 14 7 5 23 13 37 17 13 4 30 14 38 21 7 8 22 14 33 14 20
0 59 33 59 50 0 14 -3 13 -68 -20 -33 -16 -64 -30 -69 -30 -5 0 -14 -5 -20
-11 -17 -17 -113 -49 -113 -38 0 5 -7 9 -16 9 -9 0 -12 -5 -8 -12 5 -8 2 -9
-10 -5 -10 4 -27 0 -39 -9 l-22 -16 21 5 c17 3 20 1 17 -14 -6 -21 -23 -36
-23 -21 0 20 -31 21 -51 1 -17 -17 -23 -18 -35 -8 -8 7 -14 8 -13 3 3 -20 -2
-26 -13 -16 -7 5 -27 13 -45 17 -25 5 -36 2 -49 -14 -13 -15 -21 -18 -31 -9
-10 8 -13 7 -13 -2 0 -10 -3 -10 -16 0 -12 11 -15 11 -12 0 7 -30 -219 -49
-299 -25 -26 8 -59 16 -73 18 -50 9 -111 39 -106 53 3 7 0 15 -7 17 -7 2 -9 8
-4 12 4 5 13 1 20 -9 12 -16 14 -16 26 -2 8 9 26 16 42 16 16 0 29 4 29 10 0
5 17 12 38 15 20 3 50 8 65 10 25 4 27 2 22 -17 l-7 -21 23 22 c13 12 29 19
35 17 6 -2 16 0 21 5 5 5 24 11 41 12 18 1 32 5 32 8 0 4 16 10 35 13 19 3 50
9 69 12 18 3 43 1 55 -6 17 -9 25 -8 36 4 8 8 33 17 55 21 22 4 40 11 40 16 0
5 37 9 83 10 124 0 147 2 147 11 0 4 9 8 19 8 11 0 23 5 26 10 3 6 23 18 43
29 79 39 122 65 122 74 0 4 9 6 19 2 15 -4 20 0 23 17 2 16 11 24 28 26 14 2
35 13 46 23 12 11 31 21 43 22 14 1 20 6 16 15 -3 10 0 12 10 8 9 -3 18 1 21
9 9 23 23 18 22 -7z m-1317 -86 c-6 -2 -11 -10 -11 -18 0 -8 -4 -14 -10 -14
-5 0 -6 -8 -3 -17 6 -15 7 -14 14 3 7 20 7 20 23 -28 3 -10 2 -18 -3 -18 -5 0
-9 -18 -9 -40 -1 -22 -3 -50 -7 -63 -5 -20 -4 -19 9 3 8 14 15 45 17 70 3 59
6 63 28 42 29 -27 39 -54 35 -92 -2 -19 -1 -27 2 -17 3 9 10 17 15 17 5 0 1
-16 -9 -35 -16 -33 -35 -42 -80 -36 -7 1 -15 -5 -18 -14 -3 -8 -12 -15 -20
-15 -8 0 -14 -4 -14 -9 0 -5 -6 -11 -14 -14 -10 -4 -12 5 -8 41 5 54 -8 50
-17 -4 -5 -28 -11 -38 -29 -40 -12 -2 -22 1 -22 6 0 6 -11 10 -24 10 -19 0
-22 4 -18 25 4 25 48 68 61 61 4 -3 7 3 8 12 3 39 31 183 36 189 4 3 13 1 21
-6 11 -9 15 -7 19 10 5 20 8 21 23 9 10 -9 12 -16 5 -18z m1393 1 c3 -10 9
-24 12 -30 3 -8 -1 -13 -10 -13 -9 0 -16 8 -16 20 0 11 -5 20 -11 20 -5 0 -7
5 -4 10 9 15 22 12 29 -7z m-44 -28 c14 -16 10 -18 -14 -9 -9 3 -16 10 -16 15
0 14 16 11 30 -6z m-400 -15 c0 -5 -5 -10 -11 -10 -5 0 -7 5 -4 10 3 6 8 10
11 10 2 0 4 -4 4 -10z m350 -14 c0 -3 -4 -8 -10 -11 -5 -3 -10 -1 -10 4 0 6 5
11 10 11 6 0 10 -2 10 -4z m-360 -16 c0 -5 -5 -10 -11 -10 -5 0 -7 5 -4 10 3
6 8 10 11 10 2 0 4 -4 4 -10z m517 -37 c-11 -10 -26 8 -20 23 5 15 7 14 15 -1
6 -9 7 -19 5 -22z m-617 13 c0 -2 -9 -6 -20 -9 -11 -3 -18 -1 -14 4 5 9 34 13
34 5z m-96 -25 c-5 -5 -22 -12 -39 -16 l-30 -6 35 20 c34 19 53 20 34 2z
m-164 -15 c0 -3 -4 -8 -10 -11 -5 -3 -10 -1 -10 4 0 6 5 11 10 11 6 0 10 -2
10 -4z m-446 -61 c3 -8 1 -15 -4 -15 -6 0 -10 7 -10 15 0 8 2 15 4 15 2 0 6
-7 10 -15z m-354 -59 c0 -8 -4 -17 -9 -21 -12 -7 -24 12 -16 25 9 15 25 12 25
-4z m26 -20 c-1 -18 -4 -22 -14 -14 -9 8 -9 14 -1 24 16 19 17 18 15 -10z
m244 4 c0 -5 -7 -10 -15 -10 -8 0 -15 5 -15 10 0 6 7 10 15 10 8 0 15 -4 15
-10z m1497 -12 c-3 -8 -6 -5 -6 6 -1 11 2 17 5 13 3 -3 4 -12 1 -19z m-1734
-45 c29 -15 57 -27 62 -28 30 -3 96 -27 109 -40 8 -8 24 -15 36 -15 21 0 21 0
3 -32 -10 -18 -20 -35 -23 -38 -11 -11 -29 -56 -33 -80 -3 -24 -4 -24 -13 7
-8 29 -11 30 -28 17 -11 -8 -15 -14 -9 -14 7 0 8 -12 3 -35 -4 -19 -4 -35 0
-37 16 -6 -10 -48 -30 -48 -11 0 -20 -7 -20 -15 0 -14 -16 -19 -52 -16 -25 3
-37 -56 -31 -144 3 -42 9 -77 12 -79 4 -3 5 13 3 34 -3 29 1 42 19 58 12 12
26 19 31 16 4 -3 8 1 8 8 0 7 5 20 10 28 9 13 11 13 19 1 7 -10 9 -7 8 12 -1
14 -6 23 -12 21 -5 -3 1 3 14 13 13 9 33 19 45 20 21 3 20 3 -2 -12 -24 -17
-20 -40 5 -31 11 5 13 1 7 -17 -5 -12 -9 -34 -10 -49 -1 -16 -2 -31 -4 -35 -1
-5 -1 -25 0 -47 1 -24 -2 -36 -9 -32 -6 4 -6 -5 1 -26 19 -60 20 -95 4 -126
-9 -17 -13 -39 -10 -49 5 -14 4 -15 -4 -4 -13 19 -42 7 -43 -19 -1 -18 -3 -28
-9 -47 -1 -5 -6 5 -11 22 -5 18 -5 33 1 39 6 6 5 14 -1 23 -9 10 -8 13 2 13
11 0 11 2 -1 10 -8 5 -10 10 -4 10 14 0 23 55 12 72 -6 10 -8 9 -8 -4 0 -9 -4
-20 -10 -23 -6 -4 -9 12 -8 39 2 31 5 41 11 31 13 -24 24 -18 29 15 3 17 1 30
-4 30 -12 0 -10 34 4 48 9 9 9 12 -1 12 -7 0 -11 6 -8 13 4 10 -4 14 -24 14
l-29 0 2 -146 c1 -196 -1 -263 -12 -297 -7 -24 -8 -20 -6 21 2 28 2 42 -1 33
-11 -43 -21 -10 -25 85 -4 86 -9 112 -33 162 -21 45 -29 80 -33 141 -5 99 5
134 58 194 55 61 55 62 57 89 2 26 -34 131 -45 131 -17 0 -32 41 -22 59 5 11
6 21 1 23 -14 5 -24 48 -11 48 6 0 34 -12 63 -27z m1753 -70 c-4 -9 -9 -13
-12 -10 -11 11 -31 -18 -26 -38 5 -20 5 -20 -15 0 -21 21 -19 50 3 41 7 -3 20
7 30 22 18 27 32 17 20 -15z m-1476 -44 c0 -10 5 -19 10 -19 6 0 10 -7 10 -16
0 -9 8 -23 18 -30 16 -13 16 -13 0 -14 -10 0 -18 4 -18 9 0 5 -8 11 -18 13
-13 4 -26 -5 -41 -28 -13 -19 -27 -31 -32 -28 -5 3 -9 -2 -9 -10 0 -9 -4 -16
-10 -16 -15 0 -12 16 10 60 11 22 20 46 20 55 0 9 10 20 23 25 12 5 16 9 9 9
-7 1 -11 5 -7 11 9 15 35 0 35 -21z m585 21 c3 -5 -3 -10 -15 -10 -12 0 -18 5
-15 10 3 6 10 10 15 10 5 0 12 -4 15 -10z m-483 -22 c22 1 28 -30 8 -46 -13
-11 -12 -12 8 -7 15 4 24 1 28 -9 3 -9 13 -16 22 -16 13 0 13 -2 -2 -19 -9
-10 -14 -25 -11 -33 4 -9 -1 -23 -10 -32 -15 -14 -15 -18 -1 -31 8 -9 13 -22
10 -30 -4 -9 0 -15 10 -15 9 0 16 -4 16 -10 0 -5 -4 -10 -9 -10 -13 0 -19 -32
-9 -50 7 -13 54 -229 62 -286 2 -11 6 -26 9 -32 4 -5 8 -28 9 -51 1 -22 4 -38
8 -36 8 5 62 -111 78 -170 29 -100 81 -334 83 -370 2 -22 6 -44 10 -50 10 -15
29 -78 34 -111 2 -16 13 -60 23 -99 11 -38 22 -92 26 -119 3 -27 11 -55 16
-62 8 -8 8 -14 0 -19 -14 -9 -13 -26 3 -23 6 2 12 -6 12 -17 1 -29 15 -65 26
-65 6 0 5 9 -2 21 -8 15 -8 24 -1 28 7 4 8 12 2 21 -13 21 -12 50 2 50 6 0 9
-3 5 -6 -3 -3 1 -24 9 -46 8 -22 14 -55 14 -73 0 -28 3 -32 20 -28 16 4 19 2
14 -11 -3 -9 -1 -16 5 -16 6 0 11 -9 11 -20 0 -11 5 -20 11 -20 7 0 9 -10 4
-27 -9 -36 -14 -41 -25 -23 -7 11 -10 8 -10 -14 0 -24 2 -27 15 -16 29 24 24
4 -7 -28 -34 -37 -43 -37 -29 1 8 21 7 25 -4 20 -8 -3 -15 -13 -15 -22 0 -9
-9 -24 -20 -34 -22 -18 -28 -43 -7 -31 7 4 9 3 4 -2 -5 -5 -13 -10 -18 -10 -5
-1 -14 -2 -20 -3 -5 0 -8 -5 -4 -10 5 -9 -63 -81 -76 -81 -3 0 -25 -28 -47
-63 -42 -66 -146 -174 -163 -169 -5 1 -9 -2 -9 -8 0 -5 -5 -10 -11 -10 -18 0
-41 -29 -33 -42 5 -10 4 -10 -5 -2 -19 18 -50 6 -44 -17 3 -10 9 -16 14 -13
14 8 10 -9 -6 -30 -8 -11 -15 -30 -15 -43 0 -14 -6 -23 -16 -23 -9 0 -12 5 -8
12 10 16 11 69 1 75 -11 7 -37 -23 -37 -43 0 -13 -3 -14 -15 -4 -17 14 -35 5
-34 -18 0 -11 3 -12 6 -4 7 18 21 15 19 -5 0 -10 -3 -20 -6 -23 -3 -3 -11 -17
-17 -32 -7 -16 -17 -28 -23 -28 -17 0 -42 49 -37 73 4 12 1 29 -4 37 -9 12
-10 11 -4 -5 3 -11 3 -16 -2 -12 -4 5 -8 24 -9 43 0 25 3 34 13 30 7 -3 13 0
13 7 0 7 5 5 10 -4 5 -9 8 -32 7 -52 -3 -36 -3 -37 15 -17 17 18 17 22 3 49
-19 37 -19 39 3 44 12 3 11 5 -6 6 -18 1 -23 6 -20 23 2 12 12 25 23 28 11 3
21 10 22 15 1 6 5 19 8 30 6 16 3 16 -14 -5 l-21 -25 3 62 c1 35 5 63 10 63 4
0 7 5 7 10 0 6 -6 10 -14 10 -17 0 -29 27 -16 35 6 3 6 15 0 30 -5 14 -6 25
-2 26 4 0 -3 4 -15 9 -15 6 -23 21 -28 49 -4 23 -11 39 -16 36 -5 -4 -6 2 -2
11 4 11 2 15 -4 11 -15 -10 -22 14 -11 38 8 18 8 18 4 -2 -2 -13 0 -23 5 -23
16 0 10 50 -7 57 -12 4 -13 8 -3 14 9 5 10 11 2 21 -6 7 -10 28 -10 46 0 21 3
28 9 20 6 -10 8 -8 8 5 0 9 -6 17 -12 17 -10 0 -10 2 0 8 9 7 11 41 8 143 -7
171 -13 231 -35 307 -7 24 -11 60 -9 80 3 33 7 26 41 -73 21 -60 45 -144 54
-185 8 -41 33 -112 54 -158 21 -46 39 -89 39 -96 0 -6 10 -16 22 -21 13 -6 25
-21 28 -35 3 -14 13 -39 22 -56 10 -18 19 -50 20 -72 3 -47 16 -43 20 6 2 26
6 32 23 30 17 -3 20 2 17 31 -1 19 -9 42 -16 50 -7 9 -12 21 -9 27 8 24 -22
59 -50 59 -34 -1 -43 10 -25 32 8 10 9 18 3 20 -6 2 -9 21 -7 43 3 31 1 40
-11 40 -9 0 -19 -4 -22 -10 -3 -5 1 -10 9 -10 9 0 16 -7 16 -15 0 -8 -4 -15
-10 -15 -5 0 -10 3 -10 8 0 4 -11 19 -25 34 l-24 26 20 23 c12 14 16 25 10 27
-6 2 -11 15 -11 28 0 27 -9 30 -29 12 -10 -9 -12 -9 -7 -1 3 6 2 14 -4 18 -19
12 -10 22 15 17 18 -3 25 0 25 11 0 10 -6 13 -18 10 -12 -3 -18 2 -20 16 -1
12 -2 27 -3 34 0 6 2 26 6 43 5 24 3 33 -10 38 -15 5 -16 4 -5 -9 7 -9 10 -19
6 -23 -14 -13 -36 30 -29 57 3 14 9 27 13 29 5 2 6 12 3 22 -3 11 -10 17 -15
14 -6 -4 -7 2 -3 17 9 28 25 49 25 31 0 -7 5 -12 11 -12 6 0 9 6 6 14 -3 7 0
19 6 25 6 6 8 11 4 11 -16 0 -23 2 -36 13 -11 10 -13 8 -6 -12 5 -16 4 -21 -4
-17 -6 4 -11 16 -11 27 0 18 -4 17 -35 -12 -18 -18 -32 -36 -29 -41 3 -4 0 -8
-5 -8 -6 0 -11 5 -11 11 0 21 41 79 56 79 17 0 43 50 36 70 -10 31 -67 50 -57
19 4 -13 2 -19 -9 -19 -9 0 -16 -6 -16 -12 0 -7 -11 -23 -24 -36 -15 -13 -22
-29 -19 -41 3 -10 0 -22 -6 -25 -9 -6 -17 18 -8 27 1 1 -8 15 -20 31 -28 34
-29 52 -5 65 14 8 15 12 5 22 -10 10 -13 10 -13 1 0 -16 -27 -15 -33 1 -3 6
-5 1 -4 -13 0 -14 4 -30 9 -37 12 -15 -4 -24 -22 -12 -24 14 -27 11 -23 -23
l3 -33 -10 29 c-10 33 -6 46 17 46 12 0 13 3 4 14 -8 10 -9 16 -1 21 23 14 -2
126 -27 117 -4 -1 -10 7 -11 20 -3 18 -2 20 11 10 12 -10 17 -6 32 25 11 23
14 38 7 41 -12 4 -1 53 11 49 5 -1 15 10 23 26 19 35 48 37 42 2 -7 -35 1 -31
14 6 9 26 14 30 35 24 18 -4 24 -2 21 7 -3 7 2 18 11 25 14 11 13 12 -6 13
-16 0 -21 4 -16 16 3 8 11 13 17 11 6 -2 20 -1 32 3 19 8 20 13 13 67 -6 40
-4 66 4 83 10 20 10 30 0 50 -16 31 -17 94 -2 123 7 12 11 35 11 52 -2 41 18
125 30 125 5 0 6 9 3 21 -5 15 -2 22 13 26 11 3 26 18 32 33 6 15 21 30 32 33
21 6 21 31 0 33 -22 3 -23 4 -11 25 6 12 7 19 2 16 -4 -3 -17 2 -28 10 -19 14
-18 14 15 7 19 -4 43 -7 52 -6z m388 8 c0 -3 -4 -8 -10 -11 -5 -3 -10 -1 -10
4 0 6 5 11 10 11 6 0 10 -2 10 -4z m850 -15 c0 -5 8 -11 18 -14 16 -4 16 -4
-1 -12 -19 -8 -50 11 -41 26 7 12 24 12 24 0z m-1475 -151 c3 -5 -1 -10 -10
-10 -9 0 -13 5 -10 10 3 6 8 10 10 10 2 0 7 -4 10 -10z m-106 -182 c-16 -31
-23 -38 -30 -27 -16 26 -10 59 14 68 35 13 39 3 16 -41z m4767 9 c10 -10 -17
-8 -41 3 -17 8 -16 9 7 7 15 -2 30 -6 34 -10z m655 -36 c-8 -5 -20 -7 -28 -4
-21 8 -15 13 15 13 20 0 23 -3 13 -9z m109 -56 c25 -3 77 -9 116 -13 39 -4
167 -4 285 1 220 9 327 1 433 -29 27 -8 64 -14 81 -14 17 0 34 -3 38 -6 6 -7
-128 -160 -228 -259 -33 -34 -82 -88 -110 -120 -105 -125 -322 -328 -425 -397
-14 -10 -50 -35 -80 -57 -60 -43 -195 -125 -223 -134 -9 -4 -16 -12 -15 -18 2
-6 -3 -14 -11 -17 -10 -3 -11 0 -5 9 7 12 5 12 -9 0 -9 -7 -15 -17 -12 -21 3
-5 -22 -29 -55 -55 -33 -25 -60 -42 -60 -36 0 6 12 18 26 28 38 27 85 69 57
52 -57 -35 -195 -133 -218 -155 -14 -13 -29 -24 -32 -24 -4 0 -16 -9 -27 -19
-26 -24 -189 -126 -233 -146 -18 -9 -33 -19 -33 -23 0 -4 -21 -24 -48 -44 -53
-41 -84 -67 -124 -104 -19 -17 -28 -21 -28 -12 0 8 3 18 8 22 4 4 7 11 8 14 1
15 28 62 34 62 4 0 16 12 25 28 l18 27 -25 -22 c-13 -13 -31 -23 -40 -23 -9 0
-19 -6 -22 -12 -2 -7 -3 4 -1 25 2 20 0 37 -5 37 -6 0 -10 -5 -10 -11 0 -21
-22 5 -40 47 -11 24 -35 60 -55 80 -35 35 -42 62 -14 56 8 -2 10 0 6 5 -5 4
-14 8 -20 8 -7 0 -13 7 -13 15 -1 8 -2 21 -3 28 0 7 -23 37 -49 65 -27 29 -55
68 -62 87 -8 19 -29 58 -48 87 -18 28 -33 59 -31 70 3 21 -15 68 -29 77 -6 4
-9 -10 -6 -35 2 -25 24 -77 58 -137 30 -54 58 -110 62 -126 8 -33 18 -53 56
-113 15 -23 30 -54 34 -70 6 -27 12 -39 87 -155 20 -32 37 -64 37 -71 0 -7
-16 -32 -36 -55 -19 -23 -32 -42 -28 -42 4 0 -1 -6 -12 -14 -10 -8 -16 -18
-12 -22 4 -4 14 -1 22 5 8 7 19 10 24 7 5 -3 20 3 32 14 13 11 24 20 26 20 11
0 -44 -101 -60 -112 -6 -4 -7 -10 -4 -13 4 -4 30 16 59 44 49 48 69 61 69 44
0 -3 -8 -16 -17 -27 -13 -15 -10 -14 10 3 15 14 26 32 25 40 -2 11 5 16 20 16
13 0 33 8 45 18 12 9 46 36 75 60 121 96 155 123 247 191 33 24 69 53 79 65
11 12 24 21 30 21 6 0 28 15 48 33 20 17 61 50 92 72 30 22 55 43 56 48 0 4 7
7 14 7 8 0 27 11 42 25 15 14 73 55 128 92 56 36 107 73 114 82 10 13 12 11
12 -12 0 -28 13 -36 26 -15 4 6 2 14 -4 16 -26 8 -9 32 43 62 30 17 57 35 60
41 9 14 37 11 29 -3 -4 -7 6 -1 22 13 16 14 52 41 79 59 28 19 64 45 82 59 18
14 46 37 63 50 22 17 30 30 26 43 -4 17 8 26 68 53 53 25 93 54 155 114 74 72
101 93 101 76 0 -3 -5 -11 -10 -18 -41 -48 -136 -193 -160 -245 -17 -34 -38
-70 -48 -80 -9 -9 -24 -29 -33 -42 -23 -35 -187 -229 -224 -265 -17 -16 -47
-44 -66 -61 -18 -17 -61 -62 -94 -100 -71 -83 -274 -284 -286 -284 -16 0 -122
-91 -114 -98 4 -5 -88 -52 -143 -73 -13 -5 -26 -18 -29 -30 -3 -11 -11 -18
-19 -15 -8 3 -11 0 -8 -8 3 -7 -2 -19 -11 -26 -8 -7 -15 -9 -15 -5 0 4 -7 2
-16 -6 -13 -10 -17 -10 -25 2 -7 11 -9 11 -9 -4 0 -9 -28 -38 -62 -65 -34 -26
-82 -66 -107 -90 -32 -30 -47 -39 -53 -30 -5 9 -8 8 -8 -5 0 -11 -6 -17 -17
-15 -10 2 -17 -2 -16 -9 1 -6 -5 -17 -14 -25 -15 -11 -16 -11 -10 7 6 17 5 18
-5 4 -7 -8 -22 -19 -33 -23 -12 -4 -15 -10 -8 -14 24 -15 -63 -83 -112 -87 -5
0 -9 -9 -7 -20 2 -16 1 -17 -7 -5 -9 13 -13 11 -27 -9 -13 -18 -18 -20 -25
-10 -6 10 -9 8 -9 -8 0 -16 -4 -21 -15 -17 -11 5 -13 2 -9 -11 5 -12 2 -16 -9
-13 -8 2 -40 -20 -70 -49 -30 -28 -68 -58 -83 -65 -35 -18 -114 -24 -114 -9 0
6 -7 8 -15 5 -13 -5 -13 -9 -3 -22 11 -13 10 -15 -4 -9 -10 3 -20 2 -22 -2 -3
-5 -17 -6 -31 -3 -18 3 -30 -1 -39 -13 -7 -10 -17 -16 -22 -14 -17 9 -59 -47
-60 -79 -1 -18 3 -32 8 -32 5 0 6 -4 3 -10 -3 -6 5 -10 19 -10 14 0 29 -6 33
-14 7 -11 20 -9 73 8 l65 21 -54 5 c-31 3 -56 10 -59 18 -2 6 2 12 9 12 7 0 5
6 -6 14 -18 13 -18 14 2 24 24 13 84 16 130 6 28 -5 34 -3 44 20 7 14 16 26
20 26 12 0 4 -33 -9 -38 -18 -6 -4 -22 19 -22 10 0 19 -4 19 -10 0 -5 7 -10
15 -10 21 0 19 12 -6 39 -12 12 -18 25 -14 29 3 3 9 2 13 -4 11 -17 51 -36 62
-29 6 3 10 17 10 30 0 12 7 26 16 29 11 4 15 14 12 31 -3 14 1 33 8 42 12 17
13 17 19 1 4 -10 11 -15 16 -12 5 3 9 -6 9 -19 0 -16 7 -26 20 -30 11 -3 20
-12 20 -21 0 -9 -8 -16 -20 -16 -13 0 -20 -7 -20 -19 0 -21 26 -36 35 -21 8
13 25 13 25 0 0 -5 -7 -10 -16 -10 -8 0 -13 -4 -9 -9 3 -5 1 -12 -5 -16 -5 -3
-10 -1 -10 4 0 6 -3 10 -7 9 -5 -1 -23 2 -41 6 -22 5 -38 4 -47 -4 -19 -16
-19 -30 -1 -30 10 0 12 -7 9 -22 -3 -13 -3 -20 2 -16 8 8 35 -15 35 -31 0 -5
-8 -12 -17 -14 -13 -3 -11 -5 6 -6 13 0 36 -13 51 -29 15 -15 36 -32 46 -38
19 -11 -3 -19 -116 -38 -14 -2 -36 -7 -50 -10 -15 -4 -33 -1 -44 7 -19 14 -19
15 3 26 28 16 116 21 155 10 16 -5 32 -6 35 -4 9 10 -91 70 -101 60 -3 -3 -28
-7 -123 -21 -57 -8 -83 -19 -107 -47 -9 -10 -29 -20 -43 -21 -16 0 -23 -6 -20
-13 8 -22 -24 -14 -60 13 -23 17 -32 31 -28 41 5 13 2 15 -11 10 -14 -5 -17
-3 -13 8 4 8 2 17 -3 20 -6 4 -10 19 -10 35 0 30 -18 81 -33 91 -5 3 -8 9 -8
13 1 3 -1 6 -4 6 -27 0 -29 -1 -15 -10 11 -7 12 -10 2 -10 -7 0 -20 6 -27 14
-12 11 -10 15 11 24 26 12 31 28 12 34 -6 2 -8 10 -4 16 5 9 13 9 27 2 18 -10
19 -9 13 14 -6 24 -3 26 26 26 17 0 29 4 26 9 -3 5 -14 7 -24 4 -10 -2 -24 3
-32 12 -11 13 -10 15 4 9 15 -6 15 -3 4 22 -6 16 -17 36 -24 44 -18 22 -19 40
-5 90 8 25 14 50 15 55 13 59 109 184 142 185 7 0 14 7 18 15 8 21 -57 20 -78
0 -8 -9 -39 -27 -68 -41 -70 -33 -139 -72 -159 -90 -8 -8 -21 -14 -27 -14 -7
0 -12 -4 -12 -8 0 -4 -24 -26 -52 -47 -76 -57 -77 -58 -102 -82 -13 -12 -26
-19 -30 -16 -3 3 -21 -7 -40 -23 -19 -16 -56 -45 -83 -64 -26 -19 -52 -41 -56
-47 -4 -7 -13 -13 -19 -13 -6 0 -34 -14 -62 -32 -107 -67 -161 -103 -174 -115
-7 -7 -25 -16 -40 -20 -15 -3 -45 -20 -67 -38 -22 -17 -60 -44 -85 -59 -117
-70 -185 -115 -197 -132 -7 -10 -19 -19 -26 -20 -35 -6 -238 -113 -303 -161
-42 -31 -25 -37 19 -7 21 14 42 22 47 19 5 -3 18 3 30 15 11 11 28 20 38 21 9
0 35 11 57 24 22 13 63 35 90 49 28 14 64 35 80 45 17 11 36 20 43 20 7 1 25
15 39 32 24 28 79 61 176 105 20 9 37 22 37 28 0 11 13 18 178 100 48 24 80
46 78 53 -6 15 20 37 34 28 5 -3 24 8 42 25 17 18 55 43 83 57 56 26 95 57 95
74 0 6 6 9 13 6 7 -3 42 18 78 45 35 28 80 59 99 69 19 11 42 23 50 28 37 20
60 31 60 28 0 -2 -9 -30 -21 -63 -11 -32 -22 -63 -23 -69 -1 -5 -6 -26 -10
-45 -4 -19 -24 -87 -43 -150 -20 -63 -37 -127 -37 -142 -1 -16 -4 -28 -8 -28
-5 0 -8 -9 -8 -21 0 -11 -5 -29 -10 -39 -6 -10 -17 -54 -25 -96 -8 -43 -19
-80 -24 -84 -6 -3 -10 -24 -9 -46 0 -23 -5 -51 -12 -63 -12 -23 -52 -163 -74
-263 -8 -32 -18 -64 -24 -70 -6 -7 -13 -31 -17 -53 -13 -80 -46 -174 -72 -205
-6 -9 -10 -24 -8 -35 2 -11 4 -24 4 -29 1 -4 8 -5 17 -2 12 4 15 0 12 -17 -2
-12 -9 -21 -16 -20 -6 2 -12 -7 -12 -20 -1 -82 -4 -107 -16 -107 -16 0 -26 28
-11 33 8 2 7 6 -2 11 -8 5 -14 1 -18 -13 -3 -12 -16 -24 -29 -27 -20 -5 -22
-9 -13 -21 7 -7 19 -13 28 -12 38 3 59 -2 65 -17 7 -17 -32 -104 -46 -104 -4
0 -8 -7 -8 -15 0 -9 -7 -18 -16 -22 -12 -4 -15 -17 -11 -59 2 -30 0 -51 -4
-48 -10 6 -32 -43 -25 -54 2 -4 -4 -41 -14 -82 -12 -52 -14 -81 -8 -94 7 -12
7 -21 -1 -25 -7 -4 -10 -68 -10 -181 0 -212 1 -203 -17 -265 -7 -27 -25 -106
-39 -173 -14 -68 -30 -132 -35 -143 -6 -10 -9 -22 -8 -26 3 -13 -25 -123 -32
-123 -3 0 -12 -16 -19 -36 -7 -20 -42 -85 -77 -143 -77 -130 -209 -275 -315
-346 -41 -27 -82 -56 -92 -64 -64 -53 -307 -92 -370 -60 -31 16 -88 79 -82 90
4 5 -9 24 -28 42 -64 61 -195 247 -196 278 -1 9 -14 42 -30 74 -16 32 -27 64
-24 71 3 8 0 14 -7 14 -7 0 -9 8 -5 20 5 15 3 18 -9 14 -9 -3 -16 -1 -16 5 0
6 5 11 11 11 7 0 9 12 6 33 -18 107 -19 119 -7 112 8 -5 11 0 8 16 -2 13 -9
23 -16 22 -21 -5 -13 29 8 34 11 3 17 9 14 14 -3 5 -9 7 -14 4 -5 -3 -14 3
-19 14 -6 11 -7 21 -3 23 5 2 5 18 0 37 -7 26 -12 31 -19 20 -7 -12 -9 -12 -9
2 0 8 6 21 13 28 10 11 9 13 -1 7 -7 -5 -16 1 -21 16 -6 13 -10 17 -10 10 -1
-23 -21 -2 -21 22 0 12 -5 27 -12 34 -9 9 -9 12 -1 12 8 0 10 12 6 37 -5 29
-3 35 8 28 11 -6 12 -5 2 6 -7 7 -13 20 -12 29 0 10 2 11 6 2 2 -6 9 -10 14
-6 5 3 9 -16 9 -41 0 -28 4 -44 10 -40 6 3 10 21 10 40 0 19 -4 37 -10 40 -5
3 -10 17 -10 31 0 13 -5 24 -11 24 -6 0 -3 7 5 16 19 18 19 24 6 44 -9 13 -11
13 -20 0 -5 -8 -10 -22 -10 -30 0 -13 -2 -13 -9 -1 -12 19 15 62 35 54 9 -3
14 2 14 17 0 14 -4 19 -12 13 -19 -11 -37 -12 -43 -3 -3 4 6 11 20 14 24 6 24
8 21 87 -3 59 -8 85 -20 97 -16 16 -16 14 -10 -28 11 -67 10 -118 -4 -132 -8
-8 -11 8 -11 68 0 43 -5 95 -11 114 -13 44 -13 45 5 30 12 -10 14 -5 9 42 -9
86 -10 91 -29 133 -11 25 -18 66 -19 111 -1 53 -4 70 -13 67 -9 -4 -13 6 -13
31 0 22 5 36 13 36 8 0 7 4 -3 11 -11 8 -12 12 -2 16 14 6 16 39 2 48 -6 4 -6
15 0 31 l10 24 -31 -15 c-29 -16 -30 -16 -20 4 6 11 11 36 11 56 0 31 -3 35
-19 30 -14 -4 -20 0 -23 20 -5 24 7 46 14 25 2 -6 9 -6 18 0 20 12 8 21 -29
22 -19 1 -28 5 -24 12 3 6 0 5 -8 -2 -7 -6 -19 -12 -26 -12 -18 0 -16 25 2 40
8 7 15 17 15 22 0 5 -12 -5 -26 -22 -25 -29 -37 -32 -40 -9 -1 5 -2 13 -3 18
0 5 -18 8 -40 7 -49 -1 -44 15 14 47 79 45 165 102 165 111 0 10 30 35 43 36
17 0 5 -18 -15 -23 -12 -4 -19 -9 -15 -13 3 -4 18 1 31 10 14 9 32 16 41 16 8
0 15 5 15 11 0 5 -4 7 -10 4 -5 -3 -10 -2 -10 3 0 14 54 26 58 13 6 -18 22
-13 22 7 1 22 47 55 67 48 8 -4 22 -1 31 6 8 7 20 13 26 14 38 4 41 6 21 14
-21 9 -18 10 45 14 8 1 15 6 15 13 0 6 18 25 40 42 22 16 52 39 66 50 14 11
38 23 52 27 15 3 29 10 32 14 3 5 14 6 25 3 11 -3 20 0 20 6 0 6 15 25 33 42
l32 31 -40 -22 c-45 -26 -117 -62 -155 -79 -14 -6 -45 -22 -69 -36 -24 -14
-52 -25 -61 -25 -10 0 -23 -7 -30 -15 -7 -8 -20 -15 -29 -15 -9 0 -41 -16 -71
-35 -30 -19 -60 -35 -67 -35 -7 0 -23 -5 -36 -12 -12 -6 -29 -14 -37 -18 -26
-12 -65 -35 -70 -41 -3 -4 -32 -21 -65 -38 -86 -46 -166 -98 -194 -126 -22
-21 -23 -26 -11 -54 7 -17 17 -31 22 -31 5 0 8 -8 7 -17 -3 -32 1 -43 13 -40
7 1 14 -9 16 -23 2 -14 11 -33 19 -42 12 -13 14 -34 11 -87 -5 -93 -36 -138
-133 -189 -38 -20 -76 -43 -83 -50 -8 -7 -18 -10 -23 -7 -5 4 -6 0 -4 -7 3 -8
-8 -20 -27 -30 -76 -37 -125 -58 -142 -58 -9 0 -15 -4 -11 -9 9 -16 -45 -50
-111 -71 -35 -10 -72 -28 -84 -40 -11 -11 -28 -20 -39 -20 -10 0 -24 -7 -31
-15 -7 -8 -19 -15 -27 -15 -7 0 -27 -10 -43 -22 -35 -25 -53 -17 -21 10 l23
18 -27 2 c-14 1 -24 -2 -21 -7 8 -12 -20 -34 -33 -27 -5 3 -35 -8 -66 -24 -31
-17 -52 -30 -45 -30 6 0 8 -4 5 -10 -3 -5 -16 -10 -28 -10 -15 0 -18 3 -10 11
17 17 5 43 -13 28 -17 -14 -19 2 -2 19 6 6 9 15 5 18 -4 4 -14 -9 -22 -30 -24
-58 -65 -91 -189 -156 -50 -25 -54 -25 -25 0 29 23 18 26 -16 4 -14 -9 -22
-20 -20 -25 3 -4 -12 -13 -34 -19 -22 -6 -43 -15 -46 -20 -4 -6 -11 -8 -16 -4
-6 3 -27 -2 -47 -12 -20 -9 -68 -23 -106 -30 -38 -8 -79 -22 -90 -32 -12 -11
-70 -39 -131 -62 -60 -24 -115 -49 -121 -57 -6 -7 -14 -10 -17 -7 -3 4 -28 -4
-54 -16 -79 -36 -86 -39 -148 -58 -120 -39 -141 -43 -197 -40 -31 2 -54 -1
-51 -5 7 -11 -17 -38 -28 -31 -5 3 -5 13 1 24 8 15 7 18 -3 15 -7 -3 -18 -19
-24 -35 -10 -27 -15 -29 -42 -24 -21 4 -31 3 -31 -5 0 -7 -4 -9 -10 -6 -5 3
-10 1 -10 -5 0 -6 -6 -10 -12 -9 -7 1 -20 0 -28 -4 -32 -12 -60 -15 -60 -6 0
5 7 9 15 9 8 0 15 5 15 10 0 6 -7 10 -15 10 -23 0 0 39 30 50 13 5 29 19 35
31 11 20 10 21 -14 15 l-27 -7 6 53 c10 92 16 118 25 118 4 0 6 -9 3 -20 -3
-11 0 -20 6 -20 6 0 11 6 12 13 1 6 2 21 3 32 1 24 36 34 36 10 0 -9 4 -14 9
-11 5 3 7 14 5 24 -3 13 9 23 52 41 42 18 60 32 68 53 6 15 16 28 23 28 7 0
13 3 14 8 0 4 2 17 3 29 1 12 -1 20 -6 17 -4 -3 -8 6 -8 21 0 23 2 24 20 15
17 -9 20 -8 20 9 0 22 58 111 72 111 14 0 9 -16 -12 -35 -24 -22 -26 -35 -5
-35 8 0 15 5 15 10 0 6 6 10 13 10 17 0 57 45 57 64 0 9 16 26 35 38 19 13 40
34 47 47 7 13 27 33 43 43 29 17 29 18 6 18 -19 0 -21 3 -12 14 15 18 3 46
-21 46 -10 0 -16 -4 -13 -10 3 -5 1 -10 -5 -10 -6 0 -8 -4 -5 -10 3 -5 -2 -10
-12 -11 -10 0 -13 -3 -7 -5 16 -7 5 -44 -13 -44 -9 0 -13 -6 -10 -14 4 -9 0
-12 -13 -9 -12 3 -16 11 -12 26 4 15 -11 5 -49 -33 -67 -69 -93 -101 -96 -119
-3 -21 -43 -43 -43 -23 0 4 4 12 8 18 5 5 15 25 23 44 7 19 28 48 46 65 37 34
43 51 12 35 -43 -24 -68 -22 -75 4 -3 15 -11 23 -19 20 -17 -7 -26 -61 -27
-149 0 -37 -6 -88 -13 -113 -8 -33 -9 -54 -2 -69 13 -29 -6 -53 -41 -53 -14 0
-23 -3 -19 -6 3 -4 -8 -14 -26 -23 -18 -9 -44 -25 -58 -34 l-26 -17 2 69 c2
77 -3 80 -57 35 -15 -12 -44 -28 -65 -35 -21 -6 -69 -27 -107 -45 -69 -34
-117 -47 -63 -18 42 23 27 27 -16 5 -22 -11 -32 -21 -25 -24 9 -4 7 -6 -4 -6
-9 -1 -25 -4 -35 -7 -16 -5 -16 -4 1 10 11 9 15 16 8 16 -7 0 -17 -9 -24 -20
-7 -11 -18 -20 -24 -20 -6 0 -25 -7 -42 -15 -17 -9 -39 -18 -49 -20 -25 -5
-56 -17 -143 -57 -42 -20 -86 -39 -99 -43 -13 -4 -44 -20 -69 -36 -25 -16 -54
-29 -63 -29 -10 0 -19 -4 -21 -10 -1 -5 -28 -15 -58 -23 -52 -14 -55 -13 -71
7 -9 12 -35 66 -59 121 -23 55 -47 106 -52 113 -6 7 -11 35 -12 62 -1 30 -6
50 -12 50 -23 0 21 69 51 81 17 6 44 18 62 25 17 8 49 14 71 14 23 0 52 4 66
10 15 5 26 6 26 0 0 -5 13 -5 32 1 18 5 45 9 60 9 14 0 28 6 31 12 2 7 8 9 13
5 5 -5 1 -15 -10 -23 -27 -19 -6 -18 22 2 13 9 26 14 29 11 3 -3 22 3 41 14
20 10 42 19 49 19 8 0 21 4 31 9 9 5 64 26 121 46 57 21 127 50 155 65 28 15
67 31 86 35 19 4 38 12 42 18 4 6 23 12 42 13 38 1 146 50 146 65 0 5 4 9 10
9 11 0 117 52 270 133 58 30 135 67 172 82 74 29 155 71 163 86 4 5 14 9 23 9
19 0 124 53 150 76 40 35 115 85 164 110 69 35 116 71 123 95 4 10 12 19 20
19 7 0 21 18 31 40 10 22 23 40 28 41 6 0 43 37 81 81 39 44 86 99 106 122 90
101 186 214 204 240 11 16 36 47 55 70 19 23 44 54 55 69 11 15 24 27 30 27 5
0 20 16 33 35 12 19 27 35 32 35 6 0 10 4 10 10 0 5 15 29 33 53 17 24 46 62
62 85 37 51 45 53 31 7 -6 -19 -15 -35 -20 -35 -9 0 -29 -22 -47 -53 -9 -16
-8 -17 8 -8 11 5 41 28 69 51 43 36 53 40 84 35 165 -28 236 -17 528 83 70 23
80 24 231 18 109 -5 166 -3 187 4 22 9 313 47 394 52 30 2 114 -13 124 -21 6
-5 22 -9 36 -8 14 0 49 -3 78 -7 87 -12 179 20 186 66 3 24 16 37 31 31 10 -3
15 2 15 16 0 12 15 34 32 50 32 29 33 29 14 50 -15 16 -16 24 -7 35 23 27 -6
118 -49 154 -8 7 -25 17 -38 22 -13 6 -21 14 -18 19 11 17 -52 22 -134 11 -79
-11 -130 -26 -130 -40 0 -13 -133 -59 -190 -66 -13 -1 -29 0 -34 4 -6 3 -30 5
-53 3 -57 -3 -61 10 -24 91 32 71 57 100 112 129 21 10 43 25 51 33 33 33 228
109 389 152 57 15 107 32 110 37 4 5 25 10 48 10 22 1 41 7 41 12 0 6 13 22
29 36 26 23 29 33 41 141 19 179 18 177 75 210 28 15 61 32 75 38 66 28 120
55 120 62 0 5 6 8 14 8 18 0 91 39 116 62 10 10 25 18 32 19 33 2 73 37 82 72
14 56 -11 104 -61 113 -40 8 -149 -11 -171 -29 -10 -8 -16 -7 -23 4 -5 8 -9 9
-9 3 0 -13 -69 -49 -77 -40 -3 3 -15 0 -27 -6 -11 -7 -27 -13 -34 -14 -7 -1
-28 -16 -48 -33 -31 -28 -73 -39 -117 -32 -4 1 -10 -6 -13 -14 -4 -10 -14 -13
-29 -9 -15 4 -24 0 -28 -10 -4 -9 -13 -16 -22 -16 -8 0 -15 -5 -15 -11 0 -5
-5 -7 -10 -4 -6 3 -13 0 -16 -8 -3 -9 -20 -21 -37 -28 -18 -7 -45 -23 -62 -35
-44 -34 -120 -95 -163 -130 -29 -25 -101 -64 -117 -64 -2 0 3 18 9 41 9 29 37
66 97 127 46 48 87 86 91 85 4 -2 16 9 26 22 11 14 25 25 30 25 6 0 18 10 26
22 9 12 18 19 21 16 4 -3 39 12 78 33 80 44 110 59 180 88 27 12 46 25 42 31
-3 5 -1 10 4 10 6 0 13 0 16 0 2 0 16 11 30 24 14 13 40 27 58 30 18 3 46 20
64 36 18 17 35 30 38 30 3 0 34 14 67 30 34 17 63 28 66 26 2 -3 16 3 30 14
13 11 28 17 33 14 5 -3 12 2 15 10 3 9 11 16 17 16 6 0 19 8 29 17 17 15 21
15 29 3 9 -13 10 -13 6 0 -4 17 15 40 34 40 9 0 8 -4 -1 -15 -7 -8 -8 -15 -3
-15 5 0 16 11 23 25 7 14 19 25 25 25 7 0 18 7 25 15 7 8 18 14 24 13 18 -4
69 39 54 45 -10 4 -10 6 0 6 8 1 16 -8 19 -19 7 -25 33 -26 33 -1 0 10 7 24
15 31 10 9 15 9 15 1 0 -6 -5 -11 -10 -11 -6 0 -8 -11 -4 -27 7 -31 24 -55 24
-34 0 7 5 9 11 5 6 -3 3 6 -7 22 -11 15 -13 25 -6 20 9 -6 12 -1 8 17 -3 16 1
27 10 31 8 3 14 -1 14 -9 0 -19 14 -19 30 0 7 8 23 15 36 15 13 0 24 5 24 10
0 6 -11 10 -25 10 -20 0 -25 5 -25 25 0 30 37 55 46 30 7 -18 34 -20 34 -2 0
17 47 52 85 62 97 25 112 7 30 -35 -96 -48 -97 -50 -20 -43 39 3 76 10 83 16
8 6 12 6 12 -1 0 -6 -19 -24 -41 -41 l-41 -30 43 -3 c47 -3 43 1 92 -108 53
-117 65 -146 72 -170 12 -41 46 -91 69 -100 13 -4 58 -2 107 6 84 13 118 28
239 104 19 13 89 56 155 98 113 71 239 169 259 201 5 8 31 35 57 61 27 25 62
72 78 105 26 52 29 65 21 96 -5 19 -21 46 -35 59 -13 12 -22 27 -19 31 5 8
100 5 204 -6z m-5533 -17 c-3 -8 -6 -5 -6 6 -1 11 2 17 5 13 3 -3 4 -12 1 -19z
m4577 7 c13 -13 20 -14 37 -4 19 9 25 9 35 -5 8 -11 14 -13 19 -6 9 15 25 2
18 -15 -3 -8 0 -15 6 -15 6 0 11 5 11 11 0 5 5 7 10 4 6 -3 10 -1 10 4 0 6 -4
11 -10 11 -5 0 -10 5 -10 11 0 6 8 9 18 7 9 -2 16 -10 15 -16 -2 -7 2 -12 7
-12 26 0 4 -21 -47 -46 -32 -14 -80 -37 -107 -50 -51 -24 -75 -26 -37 -2 24
15 27 31 7 47 -11 9 -17 6 -30 -14 -9 -14 -14 -30 -11 -35 4 -6 -8 -13 -25
-16 -24 -5 -29 -11 -25 -25 4 -12 -2 -23 -22 -35 -36 -23 -63 -50 -63 -64 0
-13 -17 -13 -25 -1 -3 6 3 14 12 20 10 5 15 13 11 17 -15 15 55 114 81 114 7
0 11 14 9 36 -1 25 3 40 15 49 9 7 17 17 17 23 0 6 10 13 23 15 12 2 25 5 29
6 4 0 14 -6 22 -14z m446 11 c0 -9 -30 -14 -35 -6 -4 6 3 10 14 10 12 0 21 -2
21 -4z m178 -8 c39 0 72 -4 72 -9 0 -5 -16 -9 -35 -9 -19 0 -35 -2 -35 -4 0
-16 15 -36 27 -36 8 0 11 5 8 10 -9 14 7 12 29 -5 10 -8 16 -20 13 -28 -6 -16
29 -41 44 -31 8 4 9 -1 4 -17 -10 -32 -15 -36 -25 -19 -6 10 -12 11 -22 2 -11
-9 -19 -8 -36 4 -20 14 -22 14 -22 -5 0 -12 -5 -21 -12 -21 -6 0 -3 -6 8 -14
10 -8 21 -10 22 -5 6 14 19 11 26 -7 5 -13 1 -15 -24 -12 -16 3 -30 1 -30 -4
0 -4 5 -8 10 -8 6 0 10 -4 10 -8 0 -20 -162 -72 -223 -72 -20 0 -39 -4 -42
-10 -3 -5 -15 -10 -26 -10 -11 0 -17 -5 -14 -10 4 -6 11 -8 16 -5 5 4 19 3 30
0 16 -5 19 -12 15 -31 -6 -24 7 -33 20 -13 17 28 167 69 179 49 5 -8 -23 -36
-54 -54 -41 -24 -77 -52 -89 -68 -7 -10 -20 -18 -28 -18 -8 0 -17 -7 -20 -15
-4 -8 -11 -15 -17 -15 -15 0 -108 -60 -135 -87 -27 -27 -42 -29 -43 -5 0 11
-5 8 -13 -11 -22 -49 -151 -103 -223 -93 -59 8 -109 30 -123 55 -9 17 -8 21 5
21 22 0 18 17 -5 23 -11 3 -20 12 -20 21 0 16 5 18 52 20 15 1 30 4 33 8 9 9
-81 22 -94 14 -12 -8 -17 0 -25 41 -6 26 -4 32 13 38 12 3 21 11 21 18 0 8 -3
8 -12 -1 -7 -7 -18 -12 -25 -12 -9 0 -9 9 3 41 16 47 84 127 102 121 7 -2 12
3 12 12 0 9 6 16 14 16 7 0 40 16 72 35 32 19 70 35 86 35 17 0 31 7 38 20 10
19 12 19 27 5 8 -9 22 -14 29 -11 8 3 25 1 39 -4 16 -6 25 -6 25 1 0 6 7 6 20
-1 15 -8 20 -8 20 1 0 7 8 5 20 -6 12 -11 20 -13 20 -6 0 9 5 9 23 -1 12 -7
35 -14 52 -16 16 -2 38 -8 48 -14 18 -9 18 -8 2 16 -23 34 -7 33 23 -1 13 -16
21 -22 17 -15 -3 6 -2 12 4 12 5 0 16 3 25 6 11 4 16 1 16 -10 0 -13 4 -15 18
-8 9 5 23 7 31 4 8 -3 11 0 7 7 -4 6 -18 11 -32 11 -13 0 -24 5 -24 11 0 7
-10 9 -26 5 -17 -5 -32 -2 -43 8 -17 15 -33 19 -65 17 -15 -1 -16 -4 -6 -16
20 -24 4 -29 -20 -5 -11 11 -25 18 -30 15 -5 -3 -11 -1 -15 5 -3 5 -19 10 -35
10 -35 0 -80 16 -80 29 0 15 56 33 97 30 21 -1 45 1 53 4 8 3 28 9 44 14 33
10 47 33 21 33 -9 0 -13 5 -10 10 3 6 17 10 30 10 13 0 27 5 31 12 5 8 2 9 -9
5 -10 -3 -17 -2 -17 4 0 6 16 7 43 3 23 -3 75 -6 115 -6z m-297 -9 c-16 -6
-28 -6 -35 1 -7 7 1 10 25 9 32 0 33 -1 10 -10z m-111 -9 c0 -5 -4 -10 -10
-10 -5 0 -10 5 -10 10 0 6 5 10 10 10 6 0 10 -4 10 -10z m-370 -45 c0 -8 -4
-15 -10 -15 -5 0 -7 7 -4 15 4 8 8 15 10 15 2 0 4 -7 4 -15z m-4420 -5 c0 -5
-2 -10 -4 -10 -3 0 -8 5 -11 10 -3 6 -1 10 4 10 6 0 11 -4 11 -10z m4775 -70
c3 -5 1 -10 -4 -10 -6 0 -11 5 -11 10 0 6 2 10 4 10 3 0 8 -4 11 -10z m507
-42 c-7 -7 -12 -8 -12 -2 0 14 12 26 19 19 2 -3 -1 -11 -7 -17z m-1057 -8 c3
-5 13 -6 22 -3 10 4 14 2 10 -4 -4 -6 -24 -13 -45 -15 -21 -3 -61 -16 -88 -29
-27 -13 -53 -25 -59 -28 -5 -2 -3 4 5 14 13 16 125 75 142 75 4 0 9 -4 13 -10z
m-4115 -94 c0 -3 -4 -8 -10 -11 -5 -3 -10 -1 -10 4 0 6 5 11 10 11 6 0 10 -2
10 -4z m1490 -202 c0 -2 -7 -4 -15 -4 -8 0 -15 4 -15 10 0 5 7 7 15 4 8 -4 15
-8 15 -10z m-1630 -120 c0 -8 -5 -12 -10 -9 -6 4 -8 11 -5 16 9 14 15 11 15
-7z m0 -38 c0 -11 -19 -15 -25 -6 -3 5 1 10 9 10 9 0 16 -2 16 -4z m6294 -21
c-4 -8 -10 -15 -15 -15 -4 0 -6 7 -3 15 4 8 10 15 15 15 4 0 6 -7 3 -15z
m-6317 -27 c-3 -8 -6 -5 -6 6 -1 11 2 17 5 13 3 -3 4 -12 1 -19z m-10 -60 c-3
-7 -5 -2 -5 12 0 14 2 19 5 13 2 -7 2 -19 0 -25z m2643 -68 c0 -5 -4 -10 -10
-10 -5 0 -10 5 -10 10 0 6 5 10 10 10 6 0 10 -4 10 -10z m-2510 -10 c0 -5 -4
-10 -10 -10 -5 0 -10 5 -10 10 0 6 5 10 10 10 6 0 10 -4 10 -10z m35 1 c3 -5
1 -12 -5 -16 -5 -3 -10 1 -10 9 0 18 6 21 15 7z m1602 -47 c-3 -3 -12 -4 -19
-1 -8 3 -5 6 6 6 11 1 17 -2 13 -5z m-1682 -151 c-3 -13 1 -28 11 -37 9 -9 18
-31 20 -49 3 -28 2 -29 -6 -9 -5 12 -14 22 -20 22 -13 0 -13 -17 0 -25 6 -4 8
-10 5 -14 -6 -10 -7 -109 -2 -136 3 -11 0 -28 -5 -37 -5 -12 -5 -18 1 -18 6 0
8 -7 5 -15 -4 -8 -12 -15 -18 -15 -15 0 -17 30 -3 48 7 8 5 12 -6 12 -15 0
-25 43 -42 177 -9 72 7 121 41 119 20 -1 24 -5 19 -23z m2985 -143 c0 -5 -5
-10 -11 -10 -5 0 -7 5 -4 10 3 6 8 10 11 10 2 0 4 -4 4 -10z m-10 -40 c0 -17
-2 -19 -14 -8 -14 13 -12 28 5 28 5 0 9 -9 9 -20z m-16 -38 c-1 -7 -2 -24 -2
-38 -1 -14 -6 -23 -11 -20 -13 8 -9 77 3 73 6 -2 11 -9 10 -15z m-71 -10 c5
-7 5 -18 0 -25 -5 -7 -9 -24 -8 -39 1 -17 -4 -28 -13 -28 -7 0 -10 -5 -7 -10
3 -6 -1 -13 -9 -16 -9 -3 -14 -10 -11 -14 3 -4 -2 -22 -11 -39 -8 -17 -12 -36
-8 -42 4 -7 3 -9 -3 -6 -6 4 -11 -4 -12 -18 -1 -14 -2 -32 -3 -41 -2 -17 -38
-38 -85 -49 -20 -4 -33 -13 -33 -22 0 -10 -6 -13 -16 -9 -9 4 -23 1 -30 -5 -7
-6 -19 -9 -26 -7 -7 3 -18 -2 -24 -11 -11 -13 -15 -14 -38 -1 -25 13 -28 12
-56 -21 -32 -37 -36 -33 -20 21 6 19 17 68 26 109 8 41 22 84 30 97 9 12 45
37 82 56 36 18 73 39 81 47 8 7 27 18 43 23 15 6 28 16 28 24 0 8 6 11 14 8 8
-3 24 3 36 14 23 22 61 24 73 4z m62 -92 c9 -14 9 -131 1 -157 -8 -25 -67 -56
-90 -47 -9 3 -16 14 -15 23 0 11 2 12 6 3 7 -18 43 14 43 38 0 9 6 22 12 28
14 14 18 82 5 82 -4 0 -2 9 5 20 14 22 24 25 33 10z m2000 -10 c-3 -5 -11 -10
-16 -10 -6 0 -7 5 -4 10 3 6 11 10 16 10 6 0 7 -4 4 -10z m-4935 -25 c0 -8 -4
-15 -8 -15 -5 0 -9 7 -9 15 0 8 4 15 9 15 4 0 8 -7 8 -15z m817 -17 c-3 -8 -6
-5 -6 6 -1 11 2 17 5 13 3 -3 4 -12 1 -19z m4045 -10 c-17 -18 -32 -37 -34
-43 -2 -5 -9 -9 -15 -9 -7 1 -13 -3 -14 -10 -1 -21 -195 -163 -207 -152 -6 6
25 33 90 78 26 18 46 37 44 43 -3 10 17 35 28 35 4 0 32 20 64 45 67 53 89 59
44 13z m-2582 -299 c0 -5 -11 -9 -25 -9 -28 0 -34 16 -7 23 20 4 32 -1 32 -14z
m-2105 -189 c8 -13 -5 -13 -25 0 -13 8 -13 10 2 10 9 0 20 -4 23 -10z m479
-15 c-4 -8 -8 -15 -10 -15 -2 0 -4 7 -4 15 0 8 4 15 10 15 5 0 7 -7 4 -15z
m-494 -36 c0 -5 -4 -9 -10 -9 -5 0 -10 7 -10 16 0 8 5 12 10 9 6 -3 10 -10 10
-16z m473 -5 c27 6 54 -19 49 -46 -3 -15 -7 -16 -25 -7 -21 9 -20 9 2 -10 l23
-21 -23 0 c-33 0 -19 -8 21 -13 36 -4 114 -35 93 -36 -7 -1 -13 -8 -13 -16 0
-8 -8 -15 -18 -15 -28 0 -42 -19 -32 -45 11 -29 2 -37 -67 -59 -53 -18 -134
-32 -233 -42 -30 -3 -61 -7 -68 -9 -19 -7 19 46 101 139 37 43 85 104 105 136
28 45 39 56 49 48 7 -5 23 -8 36 -4z m-496 -56 c-3 -8 -6 -5 -6 6 -1 11 2 17
5 13 3 -3 4 -12 1 -19z m2333 -38 c0 -5 -4 -10 -10 -10 -5 0 -10 5 -10 10 0 6
5 10 10 10 6 0 10 -4 10 -10z m178 -13 c-45 -36 -32 -41 18 -7 52 37 70 33 28
-4 -48 -43 -53 -46 -64 -46 -5 0 -10 -4 -10 -9 0 -5 -9 -11 -21 -14 -12 -3
-18 -10 -14 -17 5 -8 11 -8 22 1 11 10 16 10 22 1 8 -13 68 25 105 67 11 11
27 21 37 21 9 0 19 5 21 12 8 24 27 -4 26 -38 -1 -31 -6 -38 -40 -52 -45 -20
-49 -32 -10 -33 l27 -1 -25 -7 c-14 -4 -24 -13 -22 -20 2 -8 -12 -11 -45 -9
-39 2 -48 6 -47 21 2 20 -11 23 -23 5 -9 -15 -14 -42 -6 -35 2 3 20 -1 38 -9
19 -8 57 -14 85 -14 27 0 50 -3 50 -6 0 -11 -29 -34 -44 -34 -8 0 -18 -5 -21
-11 -5 -7 -14 -4 -26 7 -17 15 -19 15 -19 1 0 -13 -6 -14 -32 -6 -18 5 -34 9
-36 9 -1 0 5 -11 14 -25 20 -31 11 -32 -64 -10 -49 15 -66 35 -42 50 6 3 10
11 10 16 0 6 -7 4 -15 -5 -8 -8 -37 -18 -63 -21 -54 -7 -122 -34 -122 -48 0
-5 -14 -6 -32 -2 -18 3 -75 7 -127 8 -72 2 -95 -1 -99 -12 -3 -10 5 -12 39 -7
30 4 38 3 23 -3 -35 -15 -147 -23 -192 -13 -23 6 -57 7 -75 2 -22 -5 -40 -3
-50 5 -16 11 -16 16 -2 48 16 39 64 80 143 122 28 15 52 32 52 36 0 13 53 59
67 59 7 0 13 -11 13 -24 0 -17 12 -34 35 -52 34 -25 38 -26 78 -15 23 7 49 16
57 21 9 4 40 11 70 15 82 10 131 25 163 47 29 21 129 57 157 57 10 0 5 -8 -12
-22z m-383 -17 c3 -5 1 -10 -4 -10 -6 0 -11 5 -11 10 0 6 2 10 4 10 3 0 8 -4
11 -10z m610 -82 c-9 -6 -31 -11 -47 -12 -24 -2 -27 0 -15 8 8 6 29 12 47 12
26 1 29 -1 15 -8z m-2585 -45 c0 -12 -33 -43 -47 -43 -16 0 -17 26 -2 36 6 3
15 0 20 -7 7 -11 9 -10 9 4 0 9 5 17 10 17 6 0 10 -3 10 -7z m2555 -2 c-6 -5
-28 -12 -50 -16 -37 -6 -39 -5 -20 9 21 16 86 23 70 7z m1104 -65 c9 -11 3
-14 -36 -14 -44 -1 -46 0 -29 14 25 18 50 18 65 0z m-3698 -9 c-1 -4 -1 -14
-1 -22 0 -9 -9 -15 -25 -15 -14 0 -25 5 -25 10 0 6 3 9 8 9 18 -3 32 2 32 12
0 5 -5 7 -12 3 -7 -4 -8 -3 -4 5 8 12 28 11 27 -2z m3729 -33 c0 -2 -9 -4 -21
-4 -11 0 -18 4 -14 10 5 8 35 3 35 -6z m-1421 -20 c2 -2 2 -7 -2 -10 -9 -10
-57 5 -57 17 0 10 48 4 59 -7z m1351 6 c0 -5 -4 -10 -10 -10 -5 0 -10 5 -10
10 0 6 5 10 10 10 6 0 10 -4 10 -10z m-1423 -16 c-3 -3 -12 -4 -19 -1 -8 3 -5
6 6 6 11 1 17 -2 13 -5z m1927 -9 c-6 -16 -24 -21 -24 -7 0 11 11 22 21 22 5
0 6 -7 3 -15z m221 -77 c5 -18 8 -42 7 -53 0 -11 2 -14 4 -7 3 6 13 12 22 11
11 0 12 -2 5 -6 -7 -2 -13 -15 -13 -28 0 -12 -7 -28 -15 -35 -8 -7 -15 -18
-15 -25 0 -7 -11 -12 -25 -12 -15 0 -25 5 -25 13 0 8 -7 14 -15 14 -21 0 -19
19 3 27 35 13 62 35 55 46 -10 17 -13 87 -4 87 5 0 12 -15 16 -32z m-92 -53
c1 -5 -11 -12 -27 -13 -27 -3 -28 -2 -16 13 14 17 40 17 43 0z m-703 -75 c0
-5 -2 -10 -4 -10 -3 0 -8 5 -11 10 -3 6 -1 10 4 10 6 0 11 -4 11 -10z m135
-59 c-10 -9 -25 14 -24 37 l1 27 13 -30 c7 -16 12 -32 10 -34z m-47 27 c-17
-27 -2 -68 21 -60 11 4 11 6 0 14 -10 7 -7 8 10 4 14 -3 31 0 38 6 21 17 42
-19 36 -60 l-6 -34 44 3 c47 2 96 -8 117 -24 8 -6 17 -5 27 3 9 7 18 10 22 7
3 -4 -2 -9 -11 -13 -13 -5 -14 -9 -4 -21 7 -8 13 -20 15 -27 1 -6 9 -42 17
-80 9 -38 13 -73 10 -78 -8 -13 -36 13 -30 28 6 15 -12 74 -22 74 -4 0 -8 14
-9 30 -2 30 -45 79 -70 80 -23 0 -14 -53 12 -80 27 -28 42 -87 31 -116 -6 -15
-10 -14 -36 11 -17 16 -30 36 -30 44 0 9 -3 12 -8 6 -4 -5 -16 -15 -27 -21
-30 -17 -27 -63 7 -106 16 -21 35 -38 41 -38 7 0 18 -9 25 -21 7 -12 16 -18
19 -15 3 3 2 11 -3 19 -5 7 -1 4 9 -7 10 -10 16 -24 14 -29 -2 -6 -39 -21 -83
-34 -43 -13 -93 -28 -111 -34 -18 -5 -54 -12 -80 -15 -26 -3 -72 -12 -102 -20
-35 -10 -57 -12 -64 -5 -13 13 8 133 27 146 11 9 20 45 27 115 3 26 18 37 54
38 20 1 41 5 48 9 7 4 23 8 37 9 46 3 48 4 43 24 -6 24 -21 26 -29 5 -7 -17
-34 -21 -34 -5 0 6 7 10 15 10 8 0 12 6 9 13 -7 19 16 35 46 33 14 -1 35 7 48
18 22 19 22 19 37 0 13 -17 14 -17 15 -2 0 34 -107 96 -172 100 -33 2 -37 5
-36 28 1 14 4 30 7 35 3 6 6 15 7 20 0 6 2 16 2 23 1 6 12 12 23 12 20 0 20
-2 7 -22z m82 -8 c0 -5 -5 -10 -11 -10 -5 0 -7 5 -4 10 3 6 8 10 11 10 2 0 4
-4 4 -10z m-5064 -24 c9 -9 10 -17 4 -21 -14 -8 -30 3 -30 21 0 18 8 18 26 0z
m-36 -20 c0 -13 -29 -31 -37 -22 -4 4 25 36 33 36 2 0 4 -6 4 -14z m5322 -17
c-12 -5 -30 -5 -40 -2 -14 6 -13 8 8 13 34 9 60 -1 32 -11z m-316 -66 c3 -18
-1 -21 -21 -19 -14 2 -25 6 -25 9 0 4 0 14 0 23 0 25 42 13 46 -13z m39 -3
c-3 -5 -11 -10 -16 -10 -6 0 -7 5 -4 10 3 6 11 10 16 10 6 0 7 -4 4 -10z m-93
-152 c-6 -6 -16 -7 -22 -3 -9 6 -9 9 1 16 17 10 34 0 21 -13z m-3452 -268 c0
-5 -5 -10 -11 -10 -5 0 -7 5 -4 10 3 6 8 10 11 10 2 0 4 -4 4 -10z m-2610 -34
c0 -3 -4 -8 -10 -11 -5 -3 -10 -1 -10 4 0 6 5 11 10 11 6 0 10 -2 10 -4z m-30
-16 c0 -5 -4 -10 -9 -10 -6 0 -13 5 -16 10 -3 6 1 10 9 10 9 0 16 -4 16 -10z
m74 -5 c-6 -16 -24 -21 -24 -7 0 11 11 22 21 22 5 0 6 -7 3 -15z m-30 -21 c4
-9 4 -19 2 -21 -8 -8 -26 8 -26 23 0 19 16 18 24 -2z m-34 -26 c0 -19 -2 -20
-10 -8 -13 19 -13 30 0 30 6 0 10 -10 10 -22z m-40 -18 c0 -5 -2 -10 -4 -10
-3 0 -8 5 -11 10 -3 6 -1 10 4 10 6 0 11 -4 11 -10z m5815 -359 c-4 -17 -11
-31 -16 -31 -11 0 -11 0 2 39 14 39 23 34 14 -8z m-1805 -21 c0 -5 -5 -10 -11
-10 -5 0 -7 5 -4 10 3 6 8 10 11 10 2 0 4 -4 4 -10z m-4829 -503 c-13 -13 -26
-3 -16 12 3 6 11 8 17 5 6 -4 6 -10 -1 -17z m4939 -1 c0 -3 -4 -8 -10 -11 -5
-3 -10 -1 -10 4 0 6 5 11 10 11 6 0 10 -2 10 -4z m-2404 -62 c-4 -9 -9 -15
-11 -12 -3 3 -3 13 1 22 4 9 9 15 11 12 3 -3 3 -13 -1 -22z m-1026 -64 c0 -5
-7 -10 -15 -10 -8 0 -15 5 -15 10 0 6 7 10 15 10 8 0 15 -4 15 -10z m2255 0
c-3 -5 -12 -10 -18 -10 -7 0 -6 4 3 10 19 12 23 12 15 0z m-159 -92 c-21 -11
-40 -17 -42 -15 -8 7 60 45 70 39 5 -3 -8 -14 -28 -24z m-1462 -112 c-3 -7
-15 -18 -28 -24 -18 -8 -22 -7 -23 10 -1 13 3 18 13 14 8 -3 14 -1 14 4 0 6 7
10 15 10 8 0 12 -6 9 -14z m-134 -336 c0 -5 -4 -10 -10 -10 -5 0 -10 5 -10 10
0 6 5 10 10 10 6 0 10 -4 10 -10z m3027 -62 c-3 -8 -6 -5 -6 6 -1 11 2 17 5
13 3 -3 4 -12 1 -19z m-3784 5 c-7 -2 -13 -11 -13 -18 0 -7 -6 -16 -12 -18
-10 -4 -10 -7 0 -15 7 -4 12 -22 11 -38 -1 -16 1 -36 5 -45 5 -10 2 -19 -8
-22 -25 -10 -68 64 -64 109 3 36 6 40 38 45 45 8 58 9 43 2z m837 -23 c0 -5
-2 -10 -4 -10 -3 0 -8 5 -11 10 -3 6 -1 10 4 10 6 0 11 -4 11 -10z m-930 -41
c0 -11 -4 -17 -10 -14 -5 3 -10 15 -10 26 0 11 5 17 10 14 6 -3 10 -15 10 -26z
m170 5 c0 -8 -4 -12 -10 -9 -5 3 -10 10 -10 16 0 5 5 9 10 9 6 0 10 -7 10 -16z
m-164 -105 c1 -16 -2 -29 -6 -29 -9 0 -18 41 -12 59 6 19 17 3 18 -30z m101
-15 c-3 -3 -12 -4 -19 -1 -8 3 -5 6 6 6 11 1 17 -2 13 -5z m4 -527 c-1 -12
-15 -9 -19 4 -3 6 1 10 8 8 6 -3 11 -8 11 -12z"/>
<path d="M3492 9486 c7 -8 17 -12 22 -9 4 3 2 9 -5 14 -22 13 -31 11 -17 -5z"/>
<path d="M3570 9426 c0 -2 7 -7 16 -10 8 -3 12 -2 9 4 -6 10 -25 14 -25 6z"/>
<path d="M3720 9092 c0 -5 7 -13 16 -16 10 -4 14 -1 12 6 -5 15 -28 23 -28 10z"/>
<path d="M3780 9020 c0 -5 5 -10 11 -10 5 0 7 5 4 10 -3 6 -8 10 -11 10 -2 0
-4 -4 -4 -10z"/>
<path d="M3549 8993 c-1 -5 0 -24 1 -43 2 -59 50 -158 50 -105 0 8 -4 15 -9
15 -15 0 -24 41 -13 52 7 7 4 21 -8 43 -10 18 -16 36 -13 39 4 3 3 6 0 6 -4 0
-7 -3 -8 -7z"/>
<path d="M4925 8471 c-7 -12 12 -24 25 -16 11 7 4 25 -10 25 -5 0 -11 -4 -15
-9z"/>
<path d="M4876 8442 c-10 -9 -7 -34 3 -28 5 4 11 1 13 -6 5 -15 28 -1 28 16 0
14 -35 28 -44 18z"/>
<path d="M4685 8290 c3 -5 11 -10 16 -10 6 0 7 5 4 10 -3 6 -11 10 -16 10 -6
0 -7 -4 -4 -10z"/>
<path d="M4486 8262 c-3 -2 -30 -4 -61 -3 -49 0 -55 -2 -45 -14 8 -9 18 -12
27 -6 8 4 31 5 52 2 20 -3 56 -4 80 -1 35 4 41 7 30 16 -13 11 -74 15 -83 6z"/>
<path d="M3970 8248 c0 -10 -6 -19 -12 -19 -56 -5 -72 -11 -85 -28 -8 -12 -19
-21 -25 -21 -6 0 -5 7 3 17 8 9 -10 -1 -39 -22 -92 -65 -181 -191 -182 -256 0
-14 -22 -93 -49 -175 -40 -122 -51 -167 -56 -250 -4 -58 -3 -104 2 -107 5 -3
9 11 9 31 0 141 32 268 79 319 19 21 35 44 36 51 2 14 4 21 11 42 3 8 12 42
19 75 26 122 84 206 194 281 40 27 56 26 34 -3 -7 -10 0 -6 17 10 23 21 40 27
75 27 25 0 50 -5 57 -12 9 -9 12 -9 12 0 0 7 16 11 43 10 64 -1 160 14 146 23
-7 4 -17 5 -21 3 -4 -3 -62 -7 -128 -9 -105 -4 -121 -2 -129 13 -10 16 -10 16
-11 0z"/>
<path d="M4623 8253 c9 -2 23 -2 30 0 6 3 -1 5 -18 5 -16 0 -22 -2 -12 -5z"/>
<path d="M4280 8240 c0 -13 50 -13 70 0 11 7 4 10 -27 10 -24 0 -43 -4 -43
-10z"/>
<path d="M4390 8195 c0 -14 4 -25 9 -25 5 0 8 11 7 25 -1 33 -16 33 -16 0z"/>
<path d="M4196 8145 c-11 -8 -17 -17 -14 -20 2 -3 13 4 23 15 21 23 18 25 -9
5z"/>
<path d="M3221 7984 c0 -11 3 -14 6 -6 3 7 2 16 -1 19 -3 4 -6 -2 -5 -13z"/>
<path d="M4390 7849 c0 -5 5 -7 10 -4 6 3 10 8 10 11 0 2 -4 4 -10 4 -5 0 -10
-5 -10 -11z"/>
<path d="M4317 7819 c-9 -5 -21 -8 -26 -5 -10 7 -37 -42 -28 -51 4 -3 7 1 7
11 0 10 11 19 30 22 16 4 35 13 41 20 13 16 2 18 -24 3z"/>
<path d="M4465 7790 c-3 -6 1 -7 9 -4 18 7 21 14 7 14 -6 0 -13 -4 -16 -10z"/>
<path d="M4258 7742 c-10 -2 -18 -8 -18 -13 0 -13 27 -11 35 2 9 13 4 16 -17
11z"/>
<path d="M4484 7658 l-29 -33 33 29 c30 28 37 36 29 36 -2 0 -16 -15 -33 -32z"/>
<path d="M4183 7463 c-7 -2 -13 -9 -13 -14 0 -14 24 -11 46 6 19 14 19 14 -1
14 -11 0 -26 -3 -32 -6z"/>
<path d="M3807 7443 c-4 -3 -7 -13 -7 -22 1 -13 3 -13 11 2 11 19 8 33 -4 20z"/>
<path d="M3720 7330 c-8 -5 -10 -10 -5 -10 6 0 17 5 25 10 8 5 11 10 5 10 -5
0 -17 -5 -25 -10z"/>
<path d="M5145 7640 c-3 -5 -1 -10 4 -10 6 0 11 5 11 10 0 6 -2 10 -4 10 -3 0
-8 -4 -11 -10z"/>
<path d="M4480 7470 c0 -5 5 -10 11 -10 5 0 7 5 4 10 -3 6 -8 10 -11 10 -2 0
-4 -4 -4 -10z"/>
<path d="M4510 7281 c-7 -15 -7 -21 0 -21 12 0 25 28 17 36 -3 3 -10 -4 -17
-15z"/>
<path d="M3995 7270 c-3 -5 -1 -10 4 -10 6 0 11 5 11 10 0 6 -2 10 -4 10 -3 0
-8 -4 -11 -10z"/>
<path d="M4416 7272 c-7 -12 -2 -16 47 -26 15 -4 27 -2 27 4 0 5 -13 10 -29
10 -16 0 -31 5 -33 12 -3 9 -6 9 -12 0z"/>
<path d="M4653 7252 c-8 -5 -9 -13 -3 -22 6 -8 10 -13 11 -10 0 3 2 13 4 23 4
19 4 19 -12 9z"/>
<path d="M4675 7216 c-21 -21 -25 -33 -20 -54 9 -35 9 -36 33 -21 14 9 18 18
13 28 -9 19 -8 32 3 49 16 26 -3 24 -29 -2z"/>
<path d="M3930 7209 c-23 -12 -148 -56 -204 -71 l-49 -13 70 0 c61 -1 71 2 79
20 6 13 17 19 32 18 13 -2 25 4 28 12 7 17 31 20 36 5 5 -15 30 6 26 22 -2 10
-8 13 -18 7z"/>
<path d="M3795 7191 c3 -6 -3 -15 -12 -21 -17 -11 -17 -11 0 -6 10 3 21 6 23
6 2 0 4 7 4 15 0 8 -5 15 -11 15 -5 0 -8 -4 -4 -9z"/>
<path d="M4460 7140 c0 -11 4 -20 9 -20 11 0 22 26 14 34 -12 12 -23 5 -23
-14z"/>
<path d="M4620 7141 c0 -10 9 -21 20 -24 23 -6 24 -3 10 24 -14 24 -30 25 -30
0z"/>
<path d="M3516 7084 c-9 -23 -7 -34 4 -34 5 0 7 7 4 15 -4 8 -1 15 5 15 6 0
11 5 11 10 0 16 -17 12 -24 -6z"/>
<path d="M4050 7080 c-21 -7 -21 -8 -5 -9 11 0 27 4 35 9 18 11 5 11 -30 0z"/>
<path d="M4290 7060 c0 -5 7 -10 16 -10 8 0 12 5 9 10 -3 6 -10 10 -16 10 -5
0 -9 -4 -9 -10z"/>
<path d="M3197 7043 c-8 -15 -17 -63 -11 -63 11 0 32 27 36 45 3 18 -16 33
-25 18z"/>
<path d="M3090 7030 c0 -5 4 -10 9 -10 4 0 7 -18 6 -40 -1 -22 2 -40 6 -40 5
0 9 -9 9 -19 0 -11 5 -23 11 -27 8 -5 8 -9 -1 -14 -7 -4 -9 -16 -5 -29 14 -45
25 -6 22 80 -3 65 -8 93 -18 100 -19 12 -39 11 -39 -1z"/>
<path d="M3387 6659 c7 -7 15 -10 18 -7 3 3 -2 9 -12 12 -14 6 -15 5 -6 -5z"/>
<path d="M3401 6628 c-1 -9 4 -20 9 -23 8 -5 7 -12 -2 -22 -12 -15 -11 -15 10
-2 25 15 30 39 8 39 -8 0 -17 6 -19 13 -3 7 -6 6 -6 -5z"/>
<path d="M3420 6560 c-12 -8 -11 -10 8 -10 12 0 22 5 22 10 0 13 -11 13 -30 0z"/>
<path d="M3373 6480 c-3 -11 -10 -20 -17 -20 -6 0 -5 -4 3 -9 8 -5 20 -7 26
-4 17 6 28 -43 15 -67 -14 -27 -12 -40 7 -40 9 0 13 3 10 7 -4 3 -2 12 4 20 9
10 8 13 -2 13 -11 0 -11 2 1 10 8 5 11 10 5 10 -5 0 -5 4 2 8 10 6 9 14 -1 34
-8 15 -11 29 -8 33 7 6 -16 25 -31 25 -5 0 -11 -9 -14 -20z"/>
<path d="M3360 6280 c0 -5 5 -10 11 -10 5 0 7 5 4 10 -3 6 -8 10 -11 10 -2 0
-4 -4 -4 -10z"/>
<path d="M3420 6275 c0 -8 2 -15 4 -15 2 0 6 7 10 15 3 8 1 15 -4 15 -6 0 -10
-7 -10 -15z"/>
<path d="M3238 6213 c7 -3 16 -2 19 1 4 3 -2 6 -13 5 -11 0 -14 -3 -6 -6z"/>
<path d="M3218 6163 c7 -3 16 -2 19 1 4 3 -2 6 -13 5 -11 0 -14 -3 -6 -6z"/>
<path d="M3176 6114 c-11 -8 -16 -14 -10 -14 13 0 39 18 34 24 -3 2 -14 -2
-24 -10z"/>
<path d="M3280 6116 c0 -7 8 -20 17 -27 15 -12 16 -12 10 4 -4 10 -7 23 -7 28
0 5 -4 9 -10 9 -5 0 -10 -6 -10 -14z"/>
<path d="M3236 6091 c-3 -5 4 -11 16 -14 30 -8 35 -1 9 12 -11 6 -22 7 -25 2z"/>
<path d="M3170 6059 c0 -5 5 -7 10 -4 6 3 10 8 10 11 0 2 -4 4 -10 4 -5 0 -10
-5 -10 -11z"/>
<path d="M3615 6059 c-4 -6 -4 -13 -1 -16 3 -4 6 0 6 8 0 12 2 12 9 0 5 -7 14
-10 20 -7 6 4 9 12 6 17 -8 12 -32 11 -40 -2z"/>
<path d="M3227 5985 c3 -8 9 -12 14 -9 12 7 11 11 -5 17 -10 4 -13 1 -9 -8z"/>
<path d="M3585 5750 c-3 -5 1 -10 10 -10 9 0 13 5 10 10 -3 6 -8 10 -10 10 -2
0 -7 -4 -10 -10z"/>
<path d="M3370 5742 c0 -12 19 -26 26 -19 2 2 -2 10 -11 17 -9 8 -15 8 -15 2z"/>
<path d="M3631 5680 c14 -31 19 -36 19 -24 0 6 -7 19 -16 30 -14 18 -14 18 -3
-6z"/>
<path d="M3640 5620 c8 -5 20 -10 25 -10 6 0 3 5 -5 10 -8 5 -19 10 -25 10 -5
0 -3 -5 5 -10z"/>
<path d="M3408 5473 c7 -3 16 -2 19 1 4 3 -2 6 -13 5 -11 0 -14 -3 -6 -6z"/>
<path d="M3445 5409 c-4 -6 -5 -12 -2 -15 2 -3 7 2 10 11 7 17 1 20 -8 4z"/>
<path d="M3270 5390 c-12 -8 -10 -10 8 -10 13 0 20 4 17 10 -7 12 -6 12 -25 0z"/>
<path d="M3410 5340 c-13 -8 -12 -10 3 -10 9 0 17 5 17 10 0 12 -1 12 -20 0z"/>
<path d="M3455 5200 c-3 -5 1 -10 9 -10 9 0 16 5 16 10 0 6 -4 10 -9 10 -6 0
-13 -4 -16 -10z"/>
<path d="M3602 5085 c0 -16 2 -22 5 -12 2 9 2 23 0 30 -3 6 -5 -1 -5 -18z"/>
<path d="M3262 5070 c0 -14 2 -19 5 -12 2 6 2 18 0 25 -3 6 -5 1 -5 -13z"/>
<path d="M3980 5070 c0 -5 5 -10 11 -10 5 0 7 5 4 10 -3 6 -8 10 -11 10 -2 0
-4 -4 -4 -10z"/>
<path d="M3943 5063 c-15 -5 -18 -33 -4 -33 5 0 11 9 14 20 3 11 4 20 4 19 -1
0 -8 -3 -14 -6z"/>
<path d="M3290 4916 c0 -2 9 -6 20 -9 11 -3 18 -1 14 4 -5 9 -34 13 -34 5z"/>
<path d="M3451 4875 c-13 -27 -28 -45 -38 -45 -13 0 -14 -3 -5 -12 9 -9 15 -8
27 8 21 27 48 85 42 90 -2 3 -14 -16 -26 -41z"/>
<path d="M3535 4859 c-4 -6 -5 -12 -2 -15 2 -3 7 2 10 11 7 17 1 20 -8 4z"/>
<path d="M3400 4785 c0 -8 2 -15 4 -15 2 0 6 7 10 15 3 8 1 15 -4 15 -6 0 -10
-7 -10 -15z"/>
<path d="M3380 4559 c0 -5 5 -7 10 -4 6 3 10 8 10 11 0 2 -4 4 -10 4 -5 0 -10
-5 -10 -11z"/>
<path d="M3366 4467 c3 -10 9 -15 12 -12 3 3 0 11 -7 18 -10 9 -11 8 -5 -6z"/>
<path d="M6934 6115 c-10 -26 1 -35 13 -10 6 14 7 25 2 25 -5 0 -12 -7 -15
-15z"/>
<path d="M7136 6095 c4 -8 10 -12 15 -9 11 6 2 24 -11 24 -5 0 -7 -7 -4 -15z"/>
<path d="M7035 6068 c4 -13 16 -32 27 -43 19 -18 20 -18 14 -2 -3 10 -6 23 -6
28 0 6 -4 8 -9 5 -5 -4 -7 3 -4 14 4 14 0 20 -12 20 -12 0 -15 -5 -10 -22z"/>
<path d="M7147 6063 c-3 -5 -2 -15 4 -23 5 -8 9 -22 9 -31 0 -20 50 -132 56
-126 3 2 -1 17 -8 33 -6 16 -12 38 -12 49 -1 11 -7 19 -14 17 -9 -2 -11 4 -7
17 7 22 -18 80 -28 64z"/>
<path d="M7060 5989 c0 -5 5 -7 10 -4 6 3 10 8 10 11 0 2 -4 4 -10 4 -5 0 -10
-5 -10 -11z"/>
<path d="M7250 5870 c-8 -5 -18 -6 -22 -4 -13 8 -9 -5 8 -31 9 -14 22 -25 29
-25 6 0 18 -12 25 -27 7 -17 14 -23 17 -15 3 7 -3 24 -12 39 -10 14 -20 37
-24 49 -4 17 -10 21 -21 14z m16 -48 c-4 -3 -11 0 -16 8 -15 24 -11 33 6 15 9
-9 13 -19 10 -23z"/>
<path d="M6480 5779 c0 -5 5 -7 10 -4 6 3 10 8 10 11 0 2 -4 4 -10 4 -5 0 -10
-5 -10 -11z"/>
<path d="M7290 5740 c0 -5 5 -10 11 -10 5 0 7 5 4 10 -3 6 -8 10 -11 10 -2 0
-4 -4 -4 -10z"/>
<path d="M8870 5710 c-14 -11 -20 -20 -15 -19 13 0 50 28 44 33 -2 3 -15 -4
-29 -14z"/>
<path d="M7460 5504 c0 -11 9 -29 20 -39 25 -23 25 -14 0 27 -16 27 -20 29
-20 12z"/>
<path d="M7445 4838 l-40 -42 43 33 c23 18 42 37 42 42 0 14 -3 12 -45 -33z"/>
<path d="M7550 4870 c0 -5 7 -7 15 -4 8 4 15 1 15 -5 0 -6 -5 -11 -12 -11 -6
0 -8 -3 -5 -6 8 -8 37 14 37 27 0 5 -11 9 -25 9 -14 0 -25 -4 -25 -10z"/>
<path d="M7663 4833 l-13 -26 25 23 c29 27 30 30 13 30 -7 0 -19 -12 -25 -27z"/>
<path d="M7629 4783 c-13 -16 -12 -17 4 -4 16 13 21 21 13 21 -2 0 -10 -8 -17
-17z"/>
<path d="M7607 4752 c-3 -4 1 -13 9 -19 7 -7 15 -9 17 -5 3 4 -1 13 -9 19 -7
7 -15 9 -17 5z"/>
<path d="M7545 4691 c-3 -5 -1 -12 5 -16 5 -3 10 1 10 9 0 18 -6 21 -15 7z"/>
<path d="M7830 4569 c0 -5 -4 -8 -9 -5 -4 3 -19 -6 -32 -21 l-24 -25 42 21
c46 23 63 41 39 41 -9 0 -16 -5 -16 -11z"/>
<path d="M7228 4263 c7 -3 16 -2 19 1 4 3 -2 6 -13 5 -11 0 -14 -3 -6 -6z"/>
<path d="M5425 3540 c-3 -6 1 -7 9 -4 18 7 21 14 7 14 -6 0 -13 -4 -16 -10z"/>
<path d="M4077 3295 c-8 -34 -61 -95 -81 -95 -7 0 -33 -16 -57 -35 -24 -19
-48 -35 -54 -35 -15 -1 -59 -40 -52 -46 3 -3 2 -16 -3 -29 -7 -17 -4 -27 9
-40 17 -15 21 -15 57 6 60 33 188 169 202 214 6 22 8 42 3 45 -5 3 -11 14 -13
25 -3 16 -6 14 -11 -10z m-77 -141 c0 -8 -8 -23 -17 -32 -16 -16 -16 -16 -10
1 4 10 7 25 7 33 0 8 5 14 10 14 6 0 10 -7 10 -16z m-70 -34 c0 -5 -2 -10 -4
-10 -3 0 -8 5 -11 10 -3 6 -1 10 4 10 6 0 11 -4 11 -10z m30 -20 c0 -5 -4 -10
-10 -10 -5 0 -10 5 -10 10 0 6 5 10 10 10 6 0 10 -4 10 -10z"/>
<path d="M3979 3063 c-14 -16 -41 -41 -60 -56 -32 -27 -32 -27 -2 -8 17 12 34
21 38 21 8 0 29 24 46 53 14 25 6 21 -22 -10z"/>
<path d="M4031 3003 c-13 -8 -21 -10 -21 -4 0 6 -19 -2 -42 -19 -22 -16 -47
-30 -55 -30 -7 0 -13 -6 -13 -13 0 -23 -39 -52 -51 -40 -15 15 -62 -5 -55 -23
3 -7 0 -15 -7 -18 -7 -2 -4 -5 6 -5 11 -1 17 5 15 15 -2 10 3 19 11 22 10 3
12 0 8 -11 -3 -9 -1 -18 6 -21 22 -8 -16 -27 -45 -22 -19 4 -27 1 -25 -7 1 -6
-7 -13 -19 -15 -16 -2 -26 7 -44 46 -17 35 -28 48 -39 44 -11 -4 -13 -1 -8 13
6 15 5 16 -7 6 -11 -10 -17 -8 -29 10 -18 25 -65 51 -78 43 -18 -11 -8 -28 48
-83 57 -57 99 -131 89 -157 -3 -8 -1 -14 4 -14 6 0 10 7 10 15 0 8 8 15 18 15
9 0 30 7 46 15 15 8 35 15 43 15 19 0 155 73 207 111 22 16 48 29 57 29 10 0
20 4 23 9 3 4 19 11 36 14 16 4 30 13 30 20 0 7 17 21 38 32 20 10 32 20 25
22 -6 2 -26 -3 -44 -13 -27 -14 -34 -14 -43 -3 -15 19 -70 20 -95 2z m-196
-193 c-3 -5 -11 -10 -16 -10 -6 0 -7 5 -4 10 3 6 11 10 16 10 6 0 7 -4 4 -10z
m-75 -14 c0 -3 -4 -8 -10 -11 -5 -3 -10 -1 -10 4 0 6 5 11 10 11 6 0 10 -2 10
-4z"/>
<path d="M4182 2964 c3 -17 21 -21 26 -6 1 5 -4 12 -13 16 -11 4 -15 1 -13
-10z"/>
<path d="M3347 2855 c-40 -14 -53 -22 -46 -29 2 -1 27 7 54 20 55 25 51 31 -8
9z"/>
<path d="M3520 2860 c0 -9 6 -25 14 -36 8 -11 18 -38 22 -59 6 -35 8 -37 15
-17 7 18 2 36 -21 75 -16 29 -30 45 -30 37z"/>
<path d="M3290 2795 c-32 -12 -33 -14 -9 -14 14 -1 34 6 45 14 23 18 10 18
-36 0z"/>
<path d="M3403 2796 c0 -8 6 -12 14 -9 7 3 10 9 7 14 -8 14 -21 11 -21 -5z"/>
<path d="M3285 2754 c-22 -8 -47 -22 -55 -30 -13 -14 -12 -14 10 -5 26 10 81
25 90 24 3 -1 11 5 18 13 11 12 10 14 -5 13 -10 0 -36 -7 -58 -15z"/>
<path d="M3365 2733 c-11 -3 -24 -9 -30 -13 -5 -4 -34 -13 -62 -20 -32 -7 -53
-17 -53 -26 0 -7 -10 -19 -22 -25 -34 -18 -5 -22 36 -5 20 8 36 11 36 5 0 -5
-10 -13 -22 -18 -13 -5 -39 -16 -58 -25 l-35 -16 35 6 c19 3 54 13 78 21 23 9
45 13 48 10 19 -19 -29 -66 -108 -105 -14 -8 -34 -22 -44 -33 -15 -17 -15 -19
0 -25 9 -3 23 -1 31 6 8 7 20 8 27 3 16 -10 108 -11 108 0 0 4 -9 7 -20 7 -12
0 -20 7 -20 16 0 9 6 14 13 11 10 -4 18 10 27 44 8 27 16 49 18 49 3 0 13 -10
23 -22 18 -20 23 -33 20 -50 0 -5 8 -8 20 -8 16 0 20 -4 15 -17 -3 -10 4 -6
17 10 12 15 28 27 35 27 7 0 12 7 12 16 0 11 -6 14 -20 9 -18 -6 -20 -2 -20
49 0 38 4 56 13 56 6 1 2 9 -10 19 -13 11 -23 24 -23 30 0 6 -4 11 -9 11 -5 0
-15 2 -23 4 -7 2 -22 1 -33 -1z m10 -39 c-33 -14 -83 -19 -71 -6 12 11 80 29
91 23 5 -2 -4 -11 -20 -17z m49 -13 c3 -5 -1 -11 -9 -15 -9 -3 -15 0 -15 9 0
16 16 20 24 6z m6 -126 c10 -12 10 -15 -4 -15 -9 0 -16 7 -16 15 0 8 2 15 4
15 2 0 9 -7 16 -15z m-120 -25 c0 -5 -5 -10 -11 -10 -5 0 -7 5 -4 10 3 6 8 10
11 10 2 0 4 -4 4 -10z m-30 -35 c0 -8 -7 -15 -15 -15 -16 0 -20 12 -8 23 11
12 23 8 23 -8z"/>
<path d="M3690 2700 c0 -12 24 -12 60 0 21 7 19 8 -17 9 -24 1 -43 -3 -43 -9z"/>
<path d="M3480 2660 c0 -5 5 -10 11 -10 5 0 7 5 4 10 -3 6 -8 10 -11 10 -2 0
-4 -4 -4 -10z"/>
<path d="M2880 2629 c0 -5 4 -7 10 -4 6 3 7 -1 4 -9 -3 -9 -2 -16 4 -16 17 0
22 28 6 34 -21 8 -24 8 -24 -5z"/>
<path d="M2978 2625 c-3 -3 -2 -22 3 -42 4 -21 4 -44 -2 -54 -5 -10 -9 -29 -9
-43 0 -18 -5 -26 -17 -26 -13 0 -19 -9 -20 -30 -2 -22 1 -29 10 -23 8 4 7 1
-2 -10 -12 -15 -12 -53 0 -97 6 -24 29 -28 72 -13 50 18 146 97 123 101 -9 2
-26 -8 -37 -22 -11 -14 -26 -26 -33 -26 -7 0 -27 -7 -45 -16 -18 -9 -35 -14
-38 -11 -12 13 3 205 20 247 15 37 13 64 -4 68 -8 1 -18 0 -21 -3z"/>
<path d="M2673 2598 c-6 -7 -13 -24 -16 -37 l-6 -23 25 23 c14 13 20 25 15 27
-6 2 -9 8 -5 13 8 14 -2 11 -13 -3z"/>
<path d="M2855 2599 c-11 -17 1 -21 15 -4 8 9 8 15 2 15 -6 0 -14 -5 -17 -11z"/>
<path d="M2810 2584 c0 -8 5 -12 10 -9 6 3 10 10 10 16 0 5 -4 9 -10 9 -5 0
-10 -7 -10 -16z"/>
<path d="M2877 2583 c-4 -3 -7 -11 -7 -17 0 -6 5 -5 12 2 6 6 9 14 7 17 -3 3
-9 2 -12 -2z"/>
<path d="M5041 2564 c0 -11 3 -14 6 -6 3 7 2 16 -1 19 -3 4 -6 -2 -5 -13z"/>
<path d="M2525 2565 c-5 -2 -22 -6 -38 -9 -22 -5 -25 -9 -15 -20 14 -15 42
-10 59 10 13 16 10 23 -6 19z"/>
<path d="M2566 2536 c-15 -13 -24 -26 -18 -30 9 -5 30 14 46 42 10 17 5 15
-28 -12z"/>
<path d="M2814 2542 c-1 -9 -4 -24 -8 -33 -9 -20 14 -31 35 -18 11 7 11 9 -3
9 -23 0 -23 9 -1 25 15 11 15 13 -3 23 -16 8 -20 7 -20 -6z"/>
<path d="M2860 2520 c-10 -6 -11 -10 -2 -10 6 0 12 -9 12 -19 0 -23 16 -36 25
-21 8 13 -2 60 -13 60 -4 0 -14 -5 -22 -10z"/>
<path d="M5051 2530 c-1 -3 -4 -21 -6 -40 -4 -28 -2 -31 6 -17 6 10 8 28 6 40
-2 12 -5 20 -6 17z"/>
<path d="M3376 2474 c-6 -15 -4 -15 11 -3 10 7 20 15 22 16 2 2 -3 3 -11 3 -9
0 -19 -7 -22 -16z"/>
<path d="M3800 2379 c-23 -9 -39 -26 -40 -40 0 -4 18 2 40 13 22 11 37 24 34
29 -3 5 -6 9 -7 8 -1 0 -13 -5 -27 -10z"/>
<path d="M1665 2255 c-16 -8 -23 -14 -14 -15 8 0 24 7 35 15 23 18 18 18 -21
0z"/>
<path d="M1380 2206 c0 -9 30 -14 35 -6 4 6 -3 10 -14 10 -12 0 -21 -2 -21 -4z"/>
<path d="M3125 2040 c-3 -5 -1 -10 4 -10 6 0 11 5 11 10 0 6 -2 10 -4 10 -3 0
-8 -4 -11 -10z"/>
<path d="M2964 1985 c-10 -8 -14 -14 -9 -14 6 0 19 6 29 14 11 8 15 15 10 15
-6 0 -19 -7 -30 -15z"/>
<path d="M2770 1909 c0 -5 5 -7 10 -4 6 3 10 8 10 11 0 2 -4 4 -10 4 -5 0 -10
-5 -10 -11z"/>
<path d="M2327 1893 c-4 -3 -7 -11 -7 -17 0 -6 5 -5 12 2 6 6 9 14 7 17 -3 3
-9 2 -12 -2z"/>
<path d="M2257 1876 c-10 -8 -14 -16 -10 -19 5 -3 14 3 21 14 14 22 13 23 -11
5z"/>
<path d="M5091 1844 c0 -11 3 -14 6 -6 3 7 2 16 -1 19 -3 4 -6 -2 -5 -13z"/>
<path d="M2324 1835 c-12 -8 -23 -12 -26 -10 -3 3 -5 -2 -5 -10 0 -24 19 -17
46 18 16 21 12 22 -15 2z"/>
<path d="M2545 1840 c-3 -5 1 -10 9 -10 9 0 16 5 16 10 0 6 -4 10 -9 10 -6 0
-13 -4 -16 -10z"/>
<path d="M5065 1841 c-3 -5 -1 -12 5 -16 5 -3 10 1 10 9 0 18 -6 21 -15 7z"/>
<path d="M2483 1820 c-13 -5 -23 -11 -23 -14 0 -7 40 6 46 15 6 10 6 10 -23
-1z"/>
<path d="M2200 1740 c0 -5 5 -10 11 -10 5 0 7 5 4 10 -3 6 -8 10 -11 10 -2 0
-4 -4 -4 -10z"/>
<path d="M2240 1740 c0 -5 4 -10 9 -10 6 0 13 5 16 10 3 6 -1 10 -9 10 -9 0
-16 -4 -16 -10z"/>
<path d="M5142 1680 c0 -14 2 -19 5 -12 2 6 2 18 0 25 -3 6 -5 1 -5 -13z"/>
<path d="M5181 1555 c-2 -5 -3 -23 -2 -40 1 -29 1 -29 -9 -6 -17 40 -20 19 -8
-49 11 -56 13 -60 20 -34 4 16 3 33 -2 38 -6 6 -6 14 1 22 6 7 9 28 6 46 -2
18 -5 29 -6 23z"/>
<path d="M7654 6563 c2 -10 6 -17 10 -16 15 3 16 11 2 22 -12 10 -14 9 -12 -6z"/>
<path d="M7690 6479 c0 -5 5 -7 10 -4 6 3 10 8 10 11 0 2 -4 4 -10 4 -5 0 -10
-5 -10 -11z"/>
<path d="M8277 6523 c-4 -3 -7 -11 -7 -17 0 -6 5 -5 12 2 6 6 9 14 7 17 -3 3
-9 2 -12 -2z"/>
<path d="M8225 6490 c-3 -5 -1 -10 4 -10 6 0 11 5 11 10 0 6 -2 10 -4 10 -3 0
-8 -4 -11 -10z"/>
<path d="M8048 6433 c7 -3 16 -2 19 1 4 3 -2 6 -13 5 -11 0 -14 -3 -6 -6z"/>
<path d="M8166 6431 c-4 -7 -5 -15 -2 -18 9 -9 19 4 14 18 -4 11 -6 11 -12 0z"/>
<path d="M8241 6421 c-7 -5 -9 -11 -4 -14 5 -3 15 -2 22 2 7 5 9 11 4 14 -5 3
-15 2 -22 -2z"/>
<path d="M7700 6221 c0 -5 5 -13 10 -16 6 -3 10 -2 10 4 0 5 -4 13 -10 16 -5
3 -10 2 -10 -4z"/>
<path d="M7735 6210 c3 -5 10 -10 16 -10 5 0 9 5 9 10 0 6 -7 10 -16 10 -8 0
-12 -4 -9 -10z"/>
<path d="M7517 6203 c-4 -3 -7 -11 -7 -17 0 -6 5 -5 12 2 6 6 9 14 7 17 -3 3
-9 2 -12 -2z"/>
<path d="M7862 6163 c-6 -2 -10 -9 -7 -13 7 -11 35 -2 35 11 0 10 -8 10 -28 2z"/>
<path d="M7666 6131 c-20 -8 -11 -19 12 -15 6 1 17 2 22 3 15 2 12 21 -2 20
-7 0 -22 -4 -32 -8z"/>
<path d="M7630 6090 c0 -5 5 -10 11 -10 5 0 7 5 4 10 -3 6 -8 10 -11 10 -2 0
-4 -4 -4 -10z"/>
<path d="M7585 6070 c-3 -5 -2 -10 4 -10 5 0 13 5 16 10 3 6 2 10 -4 10 -5 0
-13 -4 -16 -10z"/>
<path d="M7660 6039 c-24 -16 -37 -29 -29 -29 9 0 25 8 37 18 11 9 29 22 39
29 10 6 14 12 8 12 -5 0 -30 -14 -55 -30z"/>
<path d="M7664 5991 c-2 -2 -1 -8 2 -12 8 -14 41 -10 47 5 4 10 -2 13 -20 12
-13 0 -26 -3 -29 -5z"/>
<path d="M7756 5991 c-18 -7 -18 -8 -2 -14 10 -4 24 -1 32 8 17 17 4 19 -30 6z"/>
<path d="M3835 4490 c3 -5 17 -10 31 -10 13 0 24 5 24 10 0 6 -14 10 -31 10
-17 0 -28 -4 -24 -10z"/>
<path d="M5865 4400 c-3 -5 -1 -10 4 -10 6 0 11 5 11 10 0 6 -2 10 -4 10 -3 0
-8 -4 -11 -10z"/>
<path d="M5718 4320 c-29 -31 -22 -43 7 -14 12 13 19 14 28 5 6 -6 25 -11 42
-11 23 0 26 3 15 10 -8 5 -25 10 -37 10 -12 0 -23 7 -25 15 -2 10 -11 6 -30
-15z"/>
<path d="M4905 9358 c-9 -23 2 -38 26 -38 11 0 19 7 19 17 0 9 -3 13 -7 10 -3
-4 -12 1 -19 11 -12 16 -13 16 -19 0z"/>
<path d="M4931 9285 c0 -11 4 -29 9 -40 8 -18 9 -18 9 5 0 14 -4 32 -9 40 -8
12 -10 12 -9 -5z"/>
<path d="M7582 8851 c2 -7 7 -12 11 -12 12 1 9 15 -3 20 -7 2 -11 -2 -8 -8z"/>
<path d="M7710 8740 c0 -5 5 -10 10 -10 6 0 10 5 10 10 0 6 -4 10 -10 10 -5 0
-10 -4 -10 -10z"/>
<path d="M3196 8701 c-4 -7 -5 -15 -2 -18 9 -9 19 4 14 18 -4 11 -6 11 -12 0z"/>
<path d="M8602 8658 c24 -29 45 -55 48 -58 22 -22 84 -114 82 -122 -1 -6 3
-16 9 -24 17 -21 57 -93 81 -146 11 -27 24 -48 28 -48 11 0 2 33 -21 77 -11
21 -19 42 -19 49 0 6 -7 17 -15 24 -8 7 -15 21 -15 30 0 10 -4 20 -8 22 -5 2
-23 30 -42 62 -18 33 -41 67 -49 76 -9 9 -36 38 -59 63 -59 64 -73 59 -20 -5z"/>
<path d="M7150 8580 c-6 -11 -8 -20 -6 -20 3 0 10 9 16 20 6 11 8 20 6 20 -3
0 -10 -9 -16 -20z"/>
<path d="M7546 8434 c-4 -14 -5 -29 -2 -31 3 -3 8 7 12 21 3 15 4 29 1 32 -2
3 -8 -7 -11 -22z"/>
<path d="M6702 8408 c-19 -19 -14 -30 8 -18 11 6 20 15 20 20 0 14 -14 12 -28
-2z"/>
<path d="M9025 8360 c-3 -5 -1 -10 4 -10 6 0 11 5 11 10 0 6 -2 10 -4 10 -3 0
-8 -4 -11 -10z"/>
<path d="M6681 8323 c-2 -22 28 -123 46 -153 9 -17 23 -30 29 -30 7 0 14 -7
18 -15 6 -17 24 -19 45 -6 10 7 11 13 2 27 -6 11 -11 14 -11 7 -1 -35 -100 51
-100 87 0 11 6 20 12 20 7 0 3 7 -9 15 -12 8 -24 25 -26 38 -2 12 -5 17 -6 10z"/>
<path d="M7580 8296 c0 -14 4 -27 8 -30 5 -3 6 8 4 25 -5 35 -12 38 -12 5z"/>
<path d="M7721 8224 c0 -11 3 -14 6 -6 3 7 2 16 -1 19 -3 4 -6 -2 -5 -13z"/>
<path d="M7615 8220 c3 -5 8 -10 11 -10 2 0 4 5 4 10 0 6 -5 10 -11 10 -5 0
-7 -4 -4 -10z"/>
<path d="M8690 8140 c8 -5 20 -10 25 -10 6 0 3 5 -5 10 -8 5 -19 10 -25 10 -5
0 -3 -5 5 -10z"/>
<path d="M7730 8095 c13 -14 27 -25 31 -25 5 0 -3 11 -17 25 -14 14 -28 25
-31 25 -4 0 4 -11 17 -25z"/>
<path d="M5943 7745 c-20 -22 -15 -37 10 -33 14 2 22 10 22 22 0 24 -16 30
-32 11z"/>
<path d="M5290 7454 c0 -8 5 -12 10 -9 6 4 8 11 5 16 -9 14 -15 11 -15 -7z"/>
<path d="M5182 7160 c-7 -11 -8 -20 -3 -20 9 0 24 30 18 36 -1 2 -8 -6 -15
-16z"/>
<path d="M5346 6961 c-4 -7 -5 -15 -2 -18 9 -9 19 4 14 18 -4 11 -6 11 -12 0z"/>
<path d="M4530 6860 c0 -5 5 -10 10 -10 6 0 10 5 10 10 0 6 -4 10 -10 10 -5 0
-10 -4 -10 -10z"/>
<path d="M5107 6819 c7 -7 15 -10 18 -7 3 3 -2 9 -12 12 -14 6 -15 5 -6 -5z"/>
<path d="M4575 6697 c-10 -24 12 -74 26 -60 7 7 6 21 -4 44 -12 29 -16 31 -22
16z"/>
<path d="M7920 6700 c0 -5 9 -10 21 -10 11 0 17 5 14 10 -3 6 -13 10 -21 10
-8 0 -14 -4 -14 -10z"/>
<path d="M4634 6636 c4 -13 2 -17 -8 -13 -10 4 -12 0 -9 -14 3 -11 9 -21 13
-24 12 -7 18 42 8 57 -7 9 -8 8 -4 -6z"/>
<path d="M4401 6226 c-17 -21 4 -30 23 -10 9 8 16 17 16 20 0 10 -29 3 -39
-10z"/>
<path d="M4625 6210 c-3 -6 1 -7 9 -4 18 7 21 14 7 14 -6 0 -13 -4 -16 -10z"/>
<path d="M4625 6180 c-3 -5 -1 -10 4 -10 6 0 11 5 11 10 0 6 -2 10 -4 10 -3 0
-8 -4 -11 -10z"/>
<path d="M4700 6186 c0 -2 9 -6 20 -9 11 -3 20 -1 20 4 0 5 -9 9 -20 9 -11 0
-20 -2 -20 -4z"/>
<path d="M4819 6142 c4 -9 6 -23 4 -29 -3 -7 -2 -13 0 -13 3 0 9 13 15 28 8
24 7 28 -9 29 -15 1 -17 -2 -10 -15z"/>
<path d="M4890 6120 c0 -5 5 -10 11 -10 5 0 7 5 4 10 -3 6 -8 10 -11 10 -2 0
-4 -4 -4 -10z"/>
<path d="M4770 5927 c0 -27 34 -59 55 -51 8 4 15 1 15 -6 0 -9 7 -7 20 5 25
22 26 35 3 33 -36 -3 -84 14 -79 28 3 8 1 14 -4 14 -6 0 -10 -10 -10 -23z"/>
<path d="M4741 5872 c-12 -23 19 -48 38 -29 16 16 14 25 -9 37 -15 8 -21 7
-29 -8z"/>
<path d="M4870 5820 c0 -5 7 -7 15 -4 8 4 15 8 15 10 0 2 -7 4 -15 4 -8 0 -15
-4 -15 -10z"/>
<path d="M4925 5810 c3 -5 8 -10 11 -10 2 0 4 5 4 10 0 6 -5 10 -11 10 -5 0
-7 -4 -4 -10z"/>
<path d="M4136 5106 c3 -9 11 -16 16 -16 13 0 5 23 -10 28 -7 2 -10 -2 -6 -12z"/>
<path d="M4166 5047 c3 -10 9 -15 12 -12 3 3 0 11 -7 18 -10 9 -11 8 -5 -6z"/>
<path d="M4066 4923 c-6 -14 -5 -15 5 -6 7 7 10 15 7 18 -3 3 -9 -2 -12 -12z"/>
<path d="M4060 4860 c0 -5 7 -10 16 -10 8 0 12 5 9 10 -3 6 -10 10 -16 10 -5
0 -9 -4 -9 -10z"/>
<path d="M3975 4820 c-3 -6 -2 -10 4 -10 6 0 7 -7 4 -17 -4 -11 -3 -14 6 -9 6
4 19 2 27 -5 8 -6 18 -9 22 -5 4 4 -2 14 -13 21 -11 8 -25 19 -32 25 -8 6 -14
6 -18 0z"/>
<path d="M4069 4804 c-7 -16 -12 -32 -11 -36 1 -5 -2 -8 -8 -8 -5 0 -10 -4
-10 -10 0 -5 4 -10 9 -10 10 0 44 80 37 88 -3 2 -11 -8 -17 -24z"/>
<path d="M5240 4765 c-8 -9 -8 -15 -2 -15 12 0 26 19 19 26 -2 2 -10 -2 -17
-11z"/>
<path d="M4116 4757 c3 -10 9 -15 12 -12 3 3 0 11 -7 18 -10 9 -11 8 -5 -6z"/>
<path d="M5238 4723 c7 -3 16 -2 19 1 4 3 -2 6 -13 5 -11 0 -14 -3 -6 -6z"/>
<path d="M5216 4691 c-4 -7 -5 -15 -2 -18 9 -9 19 4 14 18 -4 11 -6 11 -12 0z"/>
<path d="M4950 4410 c0 -5 5 -10 10 -10 6 0 10 5 10 10 0 6 -4 10 -10 10 -5 0
-10 -4 -10 -10z"/>
<path d="M4880 4381 c0 -4 11 -6 25 -3 14 2 25 6 25 8 0 2 -11 4 -25 4 -14 0
-25 -4 -25 -9z"/>
<path d="M4080 4344 c0 -13 18 -39 24 -34 2 3 -2 14 -10 24 -8 11 -14 16 -14
10z"/>
<path d="M4674 4303 c-7 -2 -10 -12 -7 -21 3 -12 -12 -27 -51 -52 -60 -38 -77
-60 -24 -32 49 26 114 90 103 100 -6 5 -15 8 -21 5z"/>
<path d="M3720 4220 c0 -5 5 -10 10 -10 6 0 10 5 10 10 0 6 -4 10 -10 10 -5 0
-10 -4 -10 -10z"/>
<path d="M4475 4201 c-3 -6 -15 -11 -25 -11 -29 0 -34 -19 -8 -29 18 -7 24 -5
27 8 2 9 8 19 14 23 6 4 9 10 5 13 -3 4 -9 2 -13 -4z"/>
<path d="M4385 4120 c4 -6 11 -8 16 -5 14 9 11 15 -7 15 -8 0 -12 -5 -9 -10z"/>
<path d="M1610 3620 c0 -5 5 -10 10 -10 6 0 10 5 10 10 0 6 -4 10 -10 10 -5 0
-10 -4 -10 -10z"/>
<path d="M1730 3544 c0 -8 5 -12 10 -9 6 3 10 10 10 16 0 5 -4 9 -10 9 -5 0
-10 -7 -10 -16z"/>
<path d="M1353 3415 c0 -14 2 -25 6 -25 10 0 11 39 2 45 -5 2 -8 -7 -8 -20z"/>
<path d="M462 2745 c0 -16 2 -22 5 -12 2 9 2 23 0 30 -3 6 -5 -1 -5 -18z"/>
<path d="M2063 1990 c-13 -5 -23 -12 -23 -15 0 -9 16 -5 36 10 22 16 19 18
-13 5z"/>
<path d="M1853 1943 c-13 -2 -23 -8 -23 -12 0 -11 49 -1 56 10 3 5 2 8 -3 8
-4 -1 -18 -4 -30 -6z"/>
<path d="M1262 1263 c-15 -48 -8 -55 8 -8 7 20 10 38 8 41 -3 2 -10 -13 -16
-33z"/>
</g>
</svg>
